<svg width="88" height="90" viewBox="0 0 88 90" fill="none" xmlns="http://www.w3.org/2000/svg">
<path d="M24.9225 14.4935C29.3594 11.7508 34.3967 9.97603 39.5775 9.33068C44.7582 8.68532 50.0824 9.18727 55.048 10.8007L53.5243 15.4884C49.2309 14.0991 44.6417 13.6689 40.178 14.2246C35.7143 14.7803 31.3671 16.3131 27.5309 18.6793L24.9225 14.4935Z" fill="#97D2FF" style="mix-blend-mode:lighten"/>
<path d="M14.7314 65.9337C14.2564 65.2167 13.7007 64.5623 13.2973 63.8005L12.0245 61.5686C11.6302 60.8157 11.3075 60.018 10.94 59.2382C10.7697 58.8438 10.5815 58.4584 10.4291 58.064L10.0168 56.845C9.75683 56.0293 9.41623 55.2316 9.23696 54.398L8.64539 51.8973C8.45716 51.0637 8.39442 50.2032 8.25997 49.3517L8.08967 48.0789L8.03589 46.7972L12.9567 46.5552L12.9926 47.6666L13.1449 48.7691C13.2615 49.4951 13.3063 50.2391 13.4676 50.9651L13.9785 53.1252C14.1309 53.8513 14.4357 54.5325 14.6508 55.2406L15.0093 56.2893C15.1437 56.6388 15.314 56.9615 15.4575 57.3021C15.7712 57.9744 16.0401 58.6645 16.3896 59.3188L17.4921 61.2459C17.8327 61.9092 18.3257 62.4649 18.729 63.0834L14.7225 65.9516L14.7314 65.9337Z" fill="#97D2FF" style="mix-blend-mode:lighten"/>
<path d="M59.1801 71.9927L60.8383 74.9327C59.5297 75.7483 58.0956 76.304 56.6973 76.9494C55.9803 77.2273 55.2453 77.4513 54.5192 77.7113L53.4257 78.0788L52.3053 78.3477C51.5524 78.518 50.8085 78.7152 50.0555 78.8675L47.7699 79.1813C47.008 79.3157 46.2372 79.3336 45.4753 79.3516C44.7045 79.3695 43.9426 79.4412 43.1718 79.4053C37.0409 79.1902 30.91 77.4962 25.7203 74.1708L27.504 71.3026L26.1326 70.4331L23.3092 74.4756C26.4374 76.6536 29.9241 78.276 33.5452 79.4143L36.297 80.1582L39.1114 80.6243C40.0436 80.8215 41.0027 80.8036 41.9528 80.8843L43.3779 80.9739C43.853 80.9739 44.328 80.947 44.8031 80.9291L46.2282 80.8753C46.7033 80.8753 47.1783 80.8395 47.6534 80.7588L50.4858 80.3734L53.2644 79.7191C54.1966 79.5129 55.075 79.1364 55.9803 78.8586C59.5566 77.5679 62.9447 75.7483 65.9653 73.4269L62.9447 69.5278C61.7078 70.3883 60.5067 71.3026 59.1712 72.0017L59.1801 71.9927Z" fill="#97D2FF" style="mix-blend-mode:lighten"/>
<path d="M13.5393 25.8499C15.1258 23.1879 17.2142 20.8574 19.4282 18.6973L22.7894 22.3095C20.8892 24.1738 19.0786 26.1726 17.7162 28.4762L13.5393 25.8499Z" fill="#97D2FF" style="mix-blend-mode:lighten"/>
<path d="M78.6573 54.2008C77.4472 58.7721 75.3319 63.1193 72.4368 66.8838L68.5288 63.8811C71.0206 60.6454 72.8401 56.8898 73.8888 52.937L78.6573 54.2008Z" fill="#97D2FF" style="mix-blend-mode:lighten"/>
<path d="M63.6439 14.9685L64.7195 15.6497L65.7233 16.4295C66.3866 16.9583 67.0768 17.4603 67.7042 18.025L64.4416 21.7268C63.9038 21.2338 63.2943 20.8125 62.7296 20.3554L61.8691 19.6742L60.9459 19.0916L63.6528 14.9685H63.6439Z" fill="#97D2FF" style="mix-blend-mode:lighten"/>
<path d="M38.4211 77.4066L37.229 77.2094C36.8347 77.1466 36.4492 77.0122 36.0638 76.9136L33.7334 76.2862C32.2455 75.6856 30.6948 75.2195 29.2876 74.4308L30.1212 72.7546C31.4477 73.5076 32.9088 73.9378 34.316 74.5114L36.512 75.103C36.8795 75.1926 37.238 75.3271 37.6145 75.3809L38.7349 75.5601L38.4211 77.4066Z" fill="#97D2FF" style="mix-blend-mode:lighten"/>
<path d="M54.4296 76.1517C50.7726 77.3886 46.8915 77.9802 43.0284 77.8816L43.0822 76.0083C46.7212 76.0979 50.3782 75.5422 53.8381 74.377L54.4386 76.1517H54.4296Z" fill="#97D2FF" style="mix-blend-mode:lighten"/>
<path d="M79.8852 45.6499L79.697 48.6794L77.6713 48.4733L77.8505 45.614L79.8852 45.6499Z" fill="#97D2FF" style="mix-blend-mode:lighten"/>
<path d="M79.4191 39.3218C79.5446 40.3257 79.7329 41.3295 79.7866 42.3424L77.7609 42.4948C77.7072 41.5447 77.5279 40.5946 77.4114 39.6445L79.4191 39.3218Z" fill="#97D2FF" style="mix-blend-mode:lighten"/>
<path d="M77.8595 33.1819C78.1733 34.141 78.5497 35.0911 78.7469 36.086L76.775 36.5969C76.5957 35.6557 76.2372 34.7594 75.9414 33.8541L77.8595 33.1819Z" fill="#97D2FF" style="mix-blend-mode:lighten"/>
<path d="M75.2512 27.4097L75.9952 28.7273L76.6226 30.1166L74.7762 30.9591L74.1846 29.6505L73.4765 28.4046L75.2512 27.4097Z" fill="#97D2FF" style="mix-blend-mode:lighten"/>
<path d="M40.2228 90L39.8912 89.9731C33.7424 89.4174 27.6474 87.562 22.2604 84.6131L21.9826 84.4607L21.8661 84.1649C20.9877 81.9869 20.4409 79.6654 20.0017 77.4604C16.757 75.0224 13.835 72.0914 11.3163 68.7392C8.17021 64.401 5.89354 59.4443 4.70143 54.3711C3.33005 53.4389 1.9766 52.4171 0.659006 51.3505L0.381145 51.1264L0.336329 50.7678C-0.237319 46.0711 -0.075981 41.3206 0.811381 36.6597L0.874124 36.3191L1.14302 36.1129C2.44269 35.127 3.832 34.0962 5.41849 33.2088L5.93836 31.5417C6.09073 31.0666 6.27896 30.6274 6.46719 30.1972C6.56579 29.9731 6.66438 29.749 6.75402 29.516C6.87054 29.2471 6.96913 29.0051 7.06773 28.7631C7.23803 28.3508 7.40833 27.9385 7.5876 27.5351L8.44807 25.9307C8.18814 24.9358 7.93716 23.914 7.81168 22.8921L7.76686 22.5605L9.43403 20.0777C9.64018 19.7371 9.92701 19.3606 10.2945 18.9304L11.9706 16.9047C12.2306 16.5731 12.5532 16.1876 12.9476 15.8291L14.803 13.9916C15.3139 13.4359 15.9145 12.9519 16.4971 12.4948L18.9351 10.5408L22.3411 8.3179C22.61 8.1476 22.8879 7.99522 23.1747 7.85181C23.3091 7.78906 23.4346 7.71736 23.5691 7.64565L23.8738 7.47535L24.2144 7.55602C25.2004 7.79803 26.1863 8.06693 27.1275 8.34479C31.7794 6.19361 36.9333 4.93875 42.0692 4.69674C42.8849 3.89005 43.7185 3.13714 44.4445 2.50971C44.9106 2.10636 45.3856 1.70302 45.8696 1.29967C46.2819 0.976994 46.6763 0.69017 47.0886 0.403346L47.6623 0L47.9939 0.0268898C54.1427 0.582611 60.2377 2.438 65.6246 5.38691L65.9025 5.53929L66.019 5.83508C66.8974 8.01315 67.4442 10.3346 67.8834 12.5396C71.1281 14.9776 74.0501 17.9086 76.5688 21.2608C79.7149 25.599 81.9915 30.5557 83.1836 35.62C84.5461 36.5521 85.9085 37.565 87.2261 38.6406L87.5039 38.8647L87.5487 39.2232C88.1224 43.9289 87.9611 48.6705 87.0737 53.3313L87.0109 53.6719L86.7421 53.8781C85.4424 54.8641 84.0531 55.8948 82.4666 56.7822L81.9467 58.4494C81.7943 58.9334 81.6061 59.3726 81.4179 59.7938C81.3193 60.0179 81.2207 60.242 81.1311 60.4661L80.8263 61.2011C80.656 61.6134 80.4857 62.0347 80.2975 62.447L79.437 64.0514C79.6969 65.0463 79.9479 66.0681 80.0734 67.0899L80.1182 67.4216L78.451 69.8954C78.2449 70.236 77.9581 70.6035 77.5906 71.0427L75.9145 73.0684C75.6366 73.418 75.3139 73.7944 74.9464 74.144L73.0821 75.9815C72.5712 76.5372 71.9617 77.0212 71.3791 77.4873L68.941 79.4413L65.535 81.6642C65.2661 81.8345 64.9882 81.9869 64.7014 82.1213C64.567 82.184 64.4415 82.2557 64.307 82.3275L64.0023 82.4978L63.6617 82.4171C62.6757 82.1751 61.6987 81.9062 60.7486 81.6283C56.0967 83.7795 50.9428 85.0344 45.8069 85.2764C44.9912 86.0831 44.1577 86.827 43.4316 87.4634C42.9655 87.8667 42.4905 88.2701 42.0065 88.6734C41.6031 88.9961 41.1998 89.274 40.7964 89.5698L40.2138 89.9821L40.2228 90ZM23.3988 83.1879C28.4092 85.8769 34.0381 87.5889 39.7208 88.1536L39.7657 88.1267C40.1421 87.8578 40.5186 87.5978 40.8861 87.311C41.3432 86.9346 41.8093 86.5402 42.2574 86.1458C43.0283 85.4736 43.9336 84.6579 44.7851 83.7974L45.0361 83.5465L45.3856 83.5285C50.5126 83.3313 55.6665 82.0765 60.2915 79.8895L60.6052 79.746L60.9369 79.8446C61.8601 80.1225 62.8012 80.3914 63.7603 80.6244C63.8051 80.6065 63.8499 80.5796 63.8947 80.5617C64.1188 80.4452 64.3429 80.3376 64.558 80.2032L67.8923 78.0341L70.2586 76.1249C70.8144 75.6767 71.3432 75.2644 71.7914 74.7714L73.7005 72.8802C73.9963 72.6113 74.2383 72.3245 74.5162 71.9749L76.2102 69.9223C76.5329 69.5459 76.757 69.2501 76.9363 68.9632L78.2449 67.0182C78.1194 66.1757 77.8864 65.2883 77.6712 64.4368L77.5189 63.8542L78.6841 61.6941C78.8365 61.3624 78.9978 60.9591 79.1591 60.5647C79.2577 60.3227 79.3653 60.0717 79.4639 59.8297C79.5535 59.6056 79.6521 59.3636 79.7597 59.1306C79.9389 58.7272 80.1003 58.3418 80.2258 57.9564L80.9518 55.599L81.2745 55.4287C82.7713 54.631 84.1158 53.654 85.3617 52.7039C86.1415 48.4553 86.2849 44.135 85.8009 39.8506C84.5102 38.8198 83.1926 37.8428 81.875 36.9555L81.5792 36.7583L81.4986 36.4087C80.3781 31.452 78.1732 26.6029 75.1078 22.3723C72.6339 19.0738 69.7388 16.1966 66.521 13.8213L66.2431 13.6152L66.1714 13.2746C65.7501 11.1592 65.2482 8.91843 64.4505 6.84792C59.44 4.15895 53.8111 2.44697 48.1284 1.88228L48.0925 1.90917C47.7071 2.17807 47.3396 2.438 46.9721 2.73379C46.515 3.11025 46.0489 3.50463 45.6007 3.89901C44.8299 4.57126 43.9336 5.37795 43.0731 6.24739L42.8221 6.49836L42.4726 6.51628C37.3456 6.71348 32.1917 7.96833 27.5667 10.1554L27.253 10.2988L26.9213 10.2002C26.0071 9.92232 25.057 9.66238 24.0979 9.42038C24.0531 9.4383 24.0083 9.46519 23.9635 9.48312C23.7394 9.59964 23.5153 9.7072 23.3002 9.84165L19.9658 12.0108L17.5995 13.9199C17.0438 14.3681 16.515 14.7804 16.0668 15.2644L14.1577 17.1557C13.8619 17.4246 13.6199 17.7114 13.342 18.0609L11.648 20.1135C11.3253 20.49 11.1012 20.7858 10.9219 21.0726L9.61329 23.0176C9.73878 23.8602 9.97182 24.7475 10.1959 25.599L10.3483 26.1817L9.18306 28.3508C9.03964 28.6824 8.87831 29.0768 8.708 29.4712C8.60044 29.7221 8.50185 29.9731 8.39429 30.2241C8.30466 30.4482 8.20606 30.6902 8.0985 30.9322C7.9282 31.3355 7.7579 31.712 7.63241 32.0974L6.90639 34.4547L6.58371 34.625C5.08685 35.4228 3.74236 36.3998 2.49647 37.3499C1.71667 41.5984 1.57326 45.9187 2.05727 50.2032C3.33902 51.2339 4.66558 52.202 5.98318 53.0983L6.27896 53.2955L6.35963 53.6451C7.48004 58.6017 9.685 63.4598 12.7504 67.6815C15.2332 70.98 18.1194 73.8661 21.3372 76.2324L21.6151 76.4386L21.6868 76.7792C22.1081 78.8945 22.61 81.1353 23.4077 83.2059L23.3988 83.1879Z" fill="#97D2FF" style="mix-blend-mode:lighten"/>
<mask id="mask0_193_671" style="mask-type:alpha" maskUnits="userSpaceOnUse" x="30" y="30" width="30" height="30">
<rect x="30" y="30" width="30" height="30" fill="#D9D9D9"/>
</mask>
<g mask="url(#mask0_193_671)">
<path fill-rule="evenodd" clip-rule="evenodd" d="M30 58.9026V54.9173C30 54.3126 30.5076 53.8199 31.1307 53.8199H34.0957V30.9751C34.0957 30.4383 34.5473 30 35.1003 30H51.014C51.5671 30 52.0187 30.4383 52.0187 30.9751V34.9128H54.3641L54.6266 35.3239C55.1867 36.2106 57.4796 39.9513 58.8693 43.4949C59.4889 45.0747 59.937 46.6308 59.993 47.9253C60.0595 49.4711 59.5869 50.6738 58.2742 51.2242C57.9767 51.3499 57.6336 51.4315 57.245 51.4689C55.1587 51.6659 53.4259 50.4258 52.0187 49.0193V53.8233H55.1692C55.7923 53.8233 56.2999 54.316 56.2999 54.9207V58.906C56.2999 59.5108 55.7923 60.0034 55.1692 60.0034H31.1307C30.5076 60.0034 30 59.5108 30 58.906V58.9026ZM52.0222 36.6387V46.4168C53.3629 47.9728 55.1622 49.9298 57.0805 49.7497C57.2695 49.7327 57.4341 49.692 57.5741 49.6342C58.0782 49.4236 58.2532 48.8154 58.2182 47.9932C58.1727 46.9162 57.7666 45.5402 57.2065 44.1132C56.0233 41.1031 54.161 37.9332 53.3664 36.6421H52.0222V36.6387ZM39.9522 32.521H46.1622C46.9883 32.521 47.6639 33.1767 47.6639 33.9785V41.3069C47.6639 42.1087 46.9883 42.7644 46.1622 42.7644H39.9522C39.126 42.7644 38.4504 42.1087 38.4504 41.3069V33.9785C38.4504 33.1767 39.126 32.521 39.9522 32.521Z" fill="#B4E0FF"/>
</g>
</svg>
