<svg width="88" height="90" viewBox="0 0 88 90" fill="none" xmlns="http://www.w3.org/2000/svg">
<path d="M24.9225 14.4935C29.3593 11.7508 34.3967 9.97603 39.5774 9.33068C44.7582 8.68532 50.0824 9.18727 55.048 10.8007L53.5242 15.4884C49.2309 14.0991 44.6417 13.6689 40.178 14.2246C35.7143 14.7803 31.3671 16.3131 27.5308 18.6793L24.9225 14.4935Z" fill="#97D2FF" style="mix-blend-mode:lighten"/>
<path d="M14.7313 65.9337C14.2562 65.2167 13.7005 64.5623 13.2971 63.8005L12.0244 61.5686C11.63 60.8157 11.3073 60.018 10.9398 59.2382C10.7695 58.8438 10.5813 58.4584 10.4289 58.064L10.0166 56.845C9.75665 56.0293 9.41605 55.2316 9.23678 54.398L8.64521 51.8973C8.45698 51.0637 8.39424 50.2032 8.25979 49.3517L8.08949 48.0789L8.03571 46.7972L12.9565 46.5552L12.9924 47.6666L13.1448 48.7691C13.2613 49.4951 13.3061 50.2391 13.4674 50.9651L13.9783 53.1252C14.1307 53.8513 14.4355 54.5325 14.6506 55.2406L15.0091 56.2893C15.1436 56.6388 15.3139 56.9615 15.4573 57.3021C15.771 57.9744 16.0399 58.6645 16.3895 59.3188L17.4919 61.2459C17.8325 61.9092 18.3255 62.4649 18.7289 63.0834L14.7223 65.9516L14.7313 65.9337Z" fill="#97D2FF" style="mix-blend-mode:lighten"/>
<path d="M59.18 71.9927L60.8382 74.9327C59.5295 75.7483 58.0954 76.304 56.6971 76.9494C55.9801 77.2273 55.2451 77.4513 54.5191 77.7113L53.4256 78.0788L52.3052 78.3477C51.5522 78.518 50.8083 78.7152 50.0554 78.8675L47.7697 79.1813C47.0079 79.3157 46.237 79.3336 45.4752 79.3516C44.7043 79.3695 43.9424 79.4412 43.1716 79.4053C37.0407 79.1902 30.9099 77.4962 25.7201 74.1708L27.5038 71.3026L26.1325 70.4331L23.309 74.4756C26.4372 76.6536 29.9239 78.276 33.5451 79.4143L36.2968 80.1582L39.1112 80.6243C40.0434 80.8215 41.0025 80.8036 41.9526 80.8843L43.3778 80.9739C43.8528 80.9739 44.3279 80.947 44.8029 80.9291L46.2281 80.8753C46.7031 80.8753 47.1782 80.8395 47.6532 80.7588L50.4856 80.3734L53.2642 79.7191C54.1964 79.5129 55.0748 79.1364 55.9801 78.8586C59.5564 77.5679 62.9445 75.7483 65.9651 73.4269L62.9445 69.5278C61.7076 70.3883 60.5065 71.3026 59.171 72.0017L59.18 71.9927Z" fill="#97D2FF" style="mix-blend-mode:lighten"/>
<path d="M13.5392 25.8499C15.1256 23.1879 17.2141 20.8574 19.428 18.6973L22.7892 22.3095C20.889 24.1738 19.0784 26.1726 17.716 28.4762L13.5392 25.8499Z" fill="#97D2FF" style="mix-blend-mode:lighten"/>
<path d="M78.6571 54.2008C77.4471 58.7721 75.3318 63.1193 72.4366 66.8838L68.5287 63.8811C71.0204 60.6454 72.84 56.8898 73.8887 52.937L78.6571 54.2008Z" fill="#97D2FF" style="mix-blend-mode:lighten"/>
<path d="M63.6437 14.9685L64.7193 15.6497L65.7232 16.4295C66.3865 16.9583 67.0767 17.4603 67.7041 18.025L64.4415 21.7268C63.9037 21.2338 63.2942 20.8125 62.7295 20.3554L61.869 19.6742L60.9458 19.0916L63.6527 14.9685H63.6437Z" fill="#97D2FF" style="mix-blend-mode:lighten"/>
<path d="M38.4211 77.4066L37.229 77.2094C36.8347 77.1466 36.4492 77.0122 36.0638 76.9136L33.7334 76.2862C32.2455 75.6856 30.6948 75.2195 29.2876 74.4308L30.1212 72.7546C31.4477 73.5076 32.9088 73.9378 34.316 74.5114L36.512 75.103C36.8795 75.1926 37.238 75.3271 37.6145 75.3809L38.7349 75.5601L38.4211 77.4066Z" fill="#97D2FF" style="mix-blend-mode:lighten"/>
<path d="M54.4295 76.1517C50.7725 77.3886 46.8914 77.9802 43.0282 77.8816L43.082 76.0083C46.7211 76.0979 50.3781 75.5422 53.8379 74.377L54.4384 76.1517H54.4295Z" fill="#97D2FF" style="mix-blend-mode:lighten"/>
<path d="M79.8851 45.6499L79.6969 48.6794L77.6712 48.4733L77.8505 45.614L79.8851 45.6499Z" fill="#97D2FF" style="mix-blend-mode:lighten"/>
<path d="M79.419 39.3218C79.5445 40.3257 79.7328 41.3295 79.7865 42.3424L77.7608 42.4948C77.7071 41.5447 77.5278 40.5946 77.4113 39.6445L79.419 39.3218Z" fill="#97D2FF" style="mix-blend-mode:lighten"/>
<path d="M77.8595 33.1819C78.1732 34.141 78.5496 35.0911 78.7468 36.086L76.7749 36.5969C76.5956 35.6557 76.2371 34.7594 75.9413 33.8541L77.8595 33.1819Z" fill="#97D2FF" style="mix-blend-mode:lighten"/>
<path d="M75.2511 27.4097L75.9951 28.7273L76.6225 30.1166L74.7761 30.9591L74.1845 29.6505L73.4764 28.4046L75.2511 27.4097Z" fill="#97D2FF" style="mix-blend-mode:lighten"/>
<path d="M40.2228 90L39.8912 89.9731C33.7424 89.4174 27.6474 87.562 22.2604 84.6131L21.9826 84.4607L21.8661 84.1649C20.9877 81.9869 20.4409 79.6654 20.0017 77.4604C16.757 75.0224 13.835 72.0914 11.3163 68.7392C8.17021 64.401 5.89354 59.4443 4.70143 54.3711C3.33005 53.4389 1.9766 52.4171 0.659006 51.3505L0.381145 51.1264L0.336329 50.7678C-0.237319 46.0711 -0.075981 41.3206 0.811381 36.6597L0.874124 36.3191L1.14302 36.1129C2.44269 35.127 3.832 34.0962 5.41849 33.2088L5.93836 31.5417C6.09073 31.0666 6.27896 30.6274 6.46719 30.1972C6.56579 29.9731 6.66438 29.749 6.75402 29.516C6.87054 29.2471 6.96913 29.0051 7.06773 28.7631C7.23803 28.3508 7.40833 27.9385 7.5876 27.5351L8.44807 25.9307C8.18814 24.9358 7.93716 23.914 7.81168 22.8921L7.76686 22.5605L9.43403 20.0777C9.64018 19.7371 9.92701 19.3606 10.2945 18.9304L11.9706 16.9047C12.2306 16.5731 12.5532 16.1876 12.9476 15.8291L14.803 13.9916C15.3139 13.4359 15.9145 12.9519 16.4971 12.4948L18.9351 10.5408L22.3411 8.3179C22.61 8.1476 22.8879 7.99522 23.1747 7.85181C23.3091 7.78906 23.4346 7.71736 23.5691 7.64565L23.8738 7.47535L24.2144 7.55602C25.2004 7.79803 26.1863 8.06693 27.1275 8.34479C31.7794 6.19361 36.9333 4.93875 42.0692 4.69674C42.8849 3.89005 43.7185 3.13714 44.4445 2.50971C44.9106 2.10636 45.3856 1.70302 45.8696 1.29967C46.2819 0.976994 46.6763 0.69017 47.0886 0.403346L47.6623 0L47.9939 0.0268898C54.1427 0.582611 60.2377 2.438 65.6246 5.38691L65.9025 5.53929L66.019 5.83508C66.8974 8.01315 67.4442 10.3346 67.8834 12.5396C71.1281 14.9776 74.0501 17.9086 76.5688 21.2608C79.7149 25.599 81.9915 30.5557 83.1836 35.62C84.5461 36.5521 85.9085 37.565 87.2261 38.6406L87.5039 38.8647L87.5487 39.2232C88.1224 43.9289 87.9611 48.6705 87.0737 53.3313L87.0109 53.6719L86.7421 53.8781C85.4424 54.8641 84.0531 55.8948 82.4666 56.7822L81.9467 58.4494C81.7943 58.9334 81.6061 59.3726 81.4179 59.7938C81.3193 60.0179 81.2207 60.242 81.1311 60.4661L80.8263 61.2011C80.656 61.6134 80.4857 62.0347 80.2975 62.447L79.437 64.0514C79.6969 65.0463 79.9479 66.0681 80.0734 67.0899L80.1182 67.4216L78.451 69.8954C78.2449 70.236 77.9581 70.6035 77.5906 71.0427L75.9145 73.0684C75.6366 73.418 75.3139 73.7944 74.9464 74.144L73.0821 75.9815C72.5712 76.5372 71.9617 77.0212 71.3791 77.4873L68.941 79.4413L65.535 81.6642C65.2661 81.8345 64.9882 81.9869 64.7014 82.1213C64.567 82.184 64.4415 82.2557 64.307 82.3275L64.0023 82.4978L63.6617 82.4171C62.6757 82.1751 61.6987 81.9062 60.7486 81.6283C56.0967 83.7795 50.9428 85.0344 45.8069 85.2764C44.9912 86.0831 44.1577 86.827 43.4316 87.4634C42.9655 87.8667 42.4905 88.2701 42.0065 88.6734C41.6031 88.9961 41.1998 89.274 40.7964 89.5698L40.2138 89.9821L40.2228 90ZM23.3988 83.1879C28.4092 85.8769 34.0381 87.5889 39.7208 88.1536L39.7657 88.1267C40.1421 87.8578 40.5186 87.5978 40.8861 87.311C41.3432 86.9346 41.8093 86.5402 42.2574 86.1458C43.0283 85.4736 43.9336 84.6579 44.7851 83.7974L45.0361 83.5465L45.3856 83.5285C50.5126 83.3313 55.6665 82.0765 60.2915 79.8895L60.6052 79.746L60.9369 79.8446C61.8601 80.1225 62.8012 80.3914 63.7603 80.6244C63.8051 80.6065 63.8499 80.5796 63.8947 80.5617C64.1188 80.4452 64.3429 80.3376 64.558 80.2032L67.8923 78.0341L70.2586 76.1249C70.8144 75.6767 71.3432 75.2644 71.7914 74.7714L73.7005 72.8802C73.9963 72.6113 74.2383 72.3245 74.5162 71.9749L76.2102 69.9223C76.5329 69.5459 76.757 69.2501 76.9363 68.9632L78.2449 67.0182C78.1194 66.1757 77.8864 65.2883 77.6712 64.4368L77.5189 63.8542L78.6841 61.6941C78.8365 61.3624 78.9978 60.9591 79.1591 60.5647C79.2577 60.3227 79.3653 60.0717 79.4639 59.8297C79.5535 59.6056 79.6521 59.3636 79.7597 59.1306C79.9389 58.7272 80.1003 58.3418 80.2258 57.9564L80.9518 55.599L81.2745 55.4287C82.7713 54.631 84.1158 53.654 85.3617 52.7039C86.1415 48.4553 86.2849 44.135 85.8009 39.8506C84.5102 38.8198 83.1926 37.8428 81.875 36.9555L81.5792 36.7583L81.4986 36.4087C80.3781 31.452 78.1732 26.6029 75.1078 22.3723C72.6339 19.0738 69.7388 16.1966 66.521 13.8213L66.2431 13.6152L66.1714 13.2746C65.7501 11.1592 65.2482 8.91843 64.4505 6.84792C59.44 4.15895 53.8111 2.44697 48.1284 1.88228L48.0925 1.90917C47.7071 2.17807 47.3396 2.438 46.9721 2.73379C46.515 3.11025 46.0489 3.50463 45.6007 3.89901C44.8299 4.57126 43.9336 5.37795 43.0731 6.24739L42.8221 6.49836L42.4726 6.51628C37.3456 6.71348 32.1917 7.96833 27.5667 10.1554L27.253 10.2988L26.9213 10.2002C26.0071 9.92232 25.057 9.66238 24.0979 9.42038C24.0531 9.4383 24.0083 9.46519 23.9635 9.48312C23.7394 9.59964 23.5153 9.7072 23.3002 9.84165L19.9658 12.0108L17.5995 13.9199C17.0438 14.3681 16.515 14.7804 16.0668 15.2644L14.1577 17.1557C13.8619 17.4246 13.6199 17.7114 13.342 18.0609L11.648 20.1135C11.3253 20.49 11.1012 20.7858 10.9219 21.0726L9.61329 23.0176C9.73878 23.8602 9.97182 24.7475 10.1959 25.599L10.3483 26.1817L9.18306 28.3508C9.03964 28.6824 8.87831 29.0768 8.708 29.4712C8.60044 29.7221 8.50185 29.9731 8.39429 30.2241C8.30466 30.4482 8.20606 30.6902 8.0985 30.9322C7.9282 31.3355 7.7579 31.712 7.63241 32.0974L6.90639 34.4547L6.58371 34.625C5.08685 35.4228 3.74236 36.3998 2.49647 37.3499C1.71667 41.5984 1.57326 45.9187 2.05727 50.2032C3.33902 51.2339 4.66558 52.202 5.98318 53.0983L6.27896 53.2955L6.35963 53.6451C7.48004 58.6017 9.685 63.4598 12.7504 67.6815C15.2332 70.98 18.1194 73.8661 21.3372 76.2324L21.6151 76.4386L21.6868 76.7792C22.1081 78.8945 22.61 81.1353 23.4077 83.2059L23.3988 83.1879Z" fill="#97D2FF" style="mix-blend-mode:lighten"/>
<mask id="mask0_193_717" style="mask-type:alpha" maskUnits="userSpaceOnUse" x="29" y="30" width="30" height="30">
<rect x="29" y="30" width="30" height="30" fill="#D9D9D9"/>
</mask>
<g mask="url(#mask0_193_717)">
<path d="M42.5005 30H45.3863C46.7181 30 47.9273 30.6473 48.8032 31.6891C49.6791 32.731 50.2249 34.1707 50.2249 35.7538V38.8255H50.2232C50.2281 39.5201 49.9144 39.887 49.5794 40.2783C49.4421 40.438 49.3 40.606 49.215 40.7821C49.0254 41.1783 48.9274 41.4995 48.8784 41.8565C48.8261 42.2332 48.8228 42.6946 48.8228 43.3337C48.8228 43.4576 48.8195 43.6614 48.8179 44.1652C48.813 44.956 48.8081 45.9489 48.8228 46.5864C48.8261 46.7038 49.0761 46.787 49.2951 46.8587C49.7526 47.0087 50.1611 47.1424 50.2199 47.7766L50.2232 47.819V54.2462C50.2232 55.8293 49.6791 57.2674 48.8016 58.3109C47.9241 59.3527 46.7148 60 45.3847 60H42.4989C41.1671 60 39.9579 59.3527 39.0821 58.3109C38.2045 57.2674 37.6604 55.8293 37.6604 54.2462V47.819L37.6637 47.7766C37.7225 47.1424 38.131 47.0087 38.5886 46.8587C38.8075 46.787 39.0575 46.7038 39.0608 46.5864C39.0755 45.9489 39.0706 44.9543 39.0657 44.1652C39.0624 43.6614 39.0608 43.4576 39.0608 43.3337C39.0608 42.6946 39.0575 42.2332 39.0052 41.8565C38.9562 41.4978 38.8582 41.1783 38.6686 40.7821C38.5837 40.6043 38.4415 40.438 38.3042 40.2783C37.9692 39.887 37.6571 39.5201 37.6604 38.8255H37.6588V35.7538C37.6588 34.1707 38.2029 32.7326 39.0804 31.6891C39.9579 30.6457 41.1688 30 42.5005 30ZM49.6039 41.1179L53.743 44.8728C54.2757 45.3554 54.1434 45.2478 54.8738 45.1793C54.8215 44.506 54.9294 44.612 54.4359 44.1652L50.2886 40.4038L49.7297 40.4837L49.6023 41.1179H49.6039ZM38.2715 41.1196L34.1308 44.8745C33.5981 45.3571 33.7304 45.2495 33 45.181C33.0523 44.5076 32.9444 44.6136 33.4379 44.1668L37.5852 40.4054L38.1441 40.4853L38.2715 41.1196ZM41.0854 48.9766C40.8599 48.9766 40.7717 49.0272 40.6982 49.4886L40.4465 52.0109C40.1981 53.3804 47.7574 53.3804 47.5074 52.0109L47.2149 49.4413C47.1413 49.0402 47.0596 48.9359 46.8374 48.9766C46.4142 49.0549 44.8373 49.1283 43.8732 49.125C42.8078 49.1217 41.8208 48.9766 41.0854 48.9766ZM41.3534 42.8739C41.1263 42.887 40.9171 42.931 40.8436 42.5299L40.3844 40.0125C40.1344 38.6429 47.7231 38.6429 47.4731 40.0125L47.0139 42.5299C46.9403 42.931 46.8178 42.8902 46.5907 42.8739C46.0432 42.8364 44.785 42.781 43.8552 42.7777C43.0153 42.7745 42.0561 42.8332 41.3534 42.8739ZM42.5005 31.1804C41.4433 31.1804 40.4825 31.6957 39.7847 32.5239C39.087 33.3538 38.6539 34.4967 38.6539 35.7538V38.8304C38.6507 39.0293 38.819 39.2266 39.0003 39.4386C39.185 39.6554 39.3778 39.8804 39.5314 40.2C39.7847 40.7266 39.9154 41.1652 39.9841 41.6658C40.0511 42.1484 40.0543 42.6473 40.0543 43.3321C40.0543 43.8913 40.0543 44.0168 40.0543 44.1587C40.0592 44.9625 40.0641 45.9717 40.0494 46.6174C40.0265 47.6054 39.3991 47.8109 38.8516 47.9918C38.7438 48.0277 38.6735 47.7832 38.6523 47.8777V54.2429C38.6523 55.5 39.0853 56.6429 39.7831 57.4728C40.4808 58.3027 41.4417 58.8163 42.4989 58.8163H45.3847C46.442 58.8163 47.4028 58.3011 48.1005 57.4728C48.7983 56.6429 49.2313 55.5 49.2313 54.2429V47.8777C49.2101 47.7832 49.1382 48.0261 49.032 47.9918C48.4846 47.8125 47.8571 47.6054 47.8342 46.6174C47.8195 45.9717 47.8244 44.9625 47.8293 44.1587C47.8293 44.0168 47.8293 43.8897 47.8293 43.3321C47.8293 42.6473 47.8342 42.15 47.8996 41.6658C47.9682 41.1652 48.0989 40.7266 48.3522 40.2C48.5058 39.8788 48.6986 39.6538 48.8833 39.4386C49.0647 39.2266 49.233 39.0293 49.2313 38.8304V38.8255L49.2297 35.7538C49.2297 34.4967 48.7967 33.3538 48.0989 32.5239C47.4012 31.694 46.4403 31.1804 45.3831 31.1804H42.4973H42.5005Z" fill="#B4E0FF"/>
</g>
</svg>
