<svg width="28" height="68" viewBox="0 0 28 68" fill="none" xmlns="http://www.w3.org/2000/svg">
<path d="M15.586 44H12.014C5.47121 44 0.147461 38.6763 0.147461 32.1335V11.8665C0.147461 5.32375 5.47121 0 12.014 0H15.586C22.1288 0 27.4526 5.32375 27.4526 11.8665V32.1335C27.4526 38.6763 22.1288 44 15.586 44ZM12.014 1.19367C6.12922 1.19367 1.34113 5.98176 1.34113 11.8665V32.1335C1.34113 38.0182 6.12922 42.8063 12.014 42.8063H15.586C21.4708 42.8063 26.2589 38.0182 26.2589 32.1335V11.8665C26.2589 5.98176 21.4708 1.19367 15.586 1.19367H12.014Z" fill="white"/>
<path d="M13.8 19.8447C12.5899 19.8447 11.6066 18.8599 11.6066 17.6513V9.65527C11.6066 8.4452 12.5914 7.46191 13.8 7.46191C15.0085 7.46191 15.9933 8.44669 15.9933 9.65527V17.6513C15.9933 18.8614 15.0085 19.8447 13.8 19.8447ZM13.8 8.65409C13.2479 8.65409 12.8003 9.1032 12.8003 9.65378V17.6498C12.8003 18.2019 13.2494 18.6495 13.8 18.6495C14.3505 18.6495 14.7997 18.2004 14.7997 17.6498V9.65378C14.7997 9.10171 14.3505 8.65409 13.8 8.65409Z" fill="white"/>
<path d="M20.3589 48.8C20.1296 49.1174 19.8892 49.4236 19.6473 49.7298C19.4068 50.0359 19.1594 50.3351 18.9119 50.6343C18.4142 51.2299 17.9053 51.8143 17.388 52.3917C16.8707 52.9677 16.3451 53.5353 15.8124 54.0959C15.2798 54.6565 14.7387 55.2088 14.1935 55.7568C13.9768 55.9763 13.6244 55.9763 13.4077 55.7596L13.405 55.7568L12.5899 54.9319L11.7846 54.0959C11.2519 53.5339 10.7249 52.9691 10.209 52.3917C9.6917 51.8143 9.18281 51.2313 8.6851 50.6343C8.43764 50.3351 8.19018 50.0359 7.94972 49.7298C7.70785 49.425 7.46878 49.1174 7.2395 48.8C7.55686 49.0293 7.86444 49.2684 8.16921 49.5103C8.47539 49.7507 8.77457 49.9982 9.07376 50.2456C9.66933 50.7434 10.2537 51.2522 10.8311 51.7695C11.4085 52.2854 11.9747 52.8139 12.5354 53.3451L13.3714 54.1504L14.1963 54.9655H13.4063C13.9544 54.4203 14.5066 53.8792 15.0672 53.3465C15.6279 52.8139 16.1955 52.2882 16.7715 51.7709C17.3489 51.255 17.9319 50.7448 18.5288 50.247C18.828 49.9996 19.1272 49.7521 19.4334 49.5117C19.7382 49.2698 20.0457 49.0307 20.3631 48.8H20.3589Z" fill="white"/>
<path d="M20.359 54.5446C19.8781 55.157 19.3692 55.7427 18.8631 56.3299C18.3542 56.9143 17.8341 57.4875 17.3098 58.0579C16.7855 58.6269 16.2543 59.189 15.7174 59.7468C15.182 60.3046 14.6381 60.8555 14.0929 61.4035C13.9293 61.5671 13.6651 61.5685 13.5015 61.4035C12.9563 60.8541 12.4124 60.3046 11.877 59.7468C11.3415 59.189 10.8088 58.6283 10.2846 58.0579C9.76029 57.4889 9.24161 56.9143 8.73131 56.3299C8.22521 55.7427 7.71772 55.157 7.23679 54.5446C7.84914 55.0255 8.43492 55.533 9.02211 56.0391C9.6065 56.548 10.1811 57.0681 10.7501 57.5924C11.3191 58.1167 11.8811 58.6493 12.439 59.1848C12.9954 59.7216 13.5462 60.2641 14.0943 60.8093H13.5015C14.0495 60.2641 14.6004 59.7216 15.1582 59.1848C15.716 58.6493 16.278 58.1167 16.8471 57.5924C17.4161 57.0681 17.9907 56.5494 18.5751 56.0391C19.1622 55.533 19.748 55.0255 20.3604 54.5432L20.359 54.5446Z" fill="white"/>
<path d="M20.359 60.2878C19.8557 60.8778 19.3356 61.451 18.8155 62.0242C18.2913 62.5932 17.7656 63.1622 17.2329 63.7214C16.7045 64.2862 16.162 64.8371 15.6252 65.3949L13.9964 67.046C13.8888 67.1551 13.7126 67.1564 13.6036 67.0488L13.6008 67.046L11.9706 65.3949C11.4352 64.8371 10.8913 64.2862 10.3629 63.7214C9.82879 63.1608 9.30312 62.5932 8.78025 62.0242C8.26017 61.4496 7.74009 60.8778 7.23679 60.2864C7.82817 60.7897 8.39997 61.3098 8.97458 61.8298C9.54359 62.3541 10.1126 62.8798 10.6718 63.4124C11.2366 63.9409 11.7875 64.4834 12.3453 65.0202L13.9964 66.6503H13.6008L15.2519 65.0216C15.8097 64.4862 16.3605 63.9423 16.9253 63.4138C17.4846 62.8798 18.0536 62.3555 18.6226 61.8312C19.1958 61.3112 19.769 60.7911 20.359 60.2878Z" fill="white"/>
</svg>
