<svg width="88" height="90" viewBox="0 0 88 90" fill="none" xmlns="http://www.w3.org/2000/svg">
<path d="M24.9225 14.4935C29.3594 11.7508 34.3967 9.97603 39.5775 9.33068C44.7582 8.68532 50.0824 9.18727 55.048 10.8007L53.5243 15.4884C49.2309 14.0991 44.6417 13.6689 40.178 14.2246C35.7143 14.7803 31.3671 16.3131 27.5309 18.6793L24.9225 14.4935Z" fill="#97D2FF" style="mix-blend-mode:lighten"/>
<path d="M14.7313 65.9337C14.2563 65.2167 13.7005 64.5623 13.2972 63.8005L12.0244 61.5686C11.63 60.8157 11.3074 60.018 10.9399 59.2382C10.7696 58.8438 10.5813 58.4584 10.429 58.064L10.0166 56.845C9.75671 56.0293 9.41611 55.2316 9.23684 54.398L8.64527 51.8973C8.45704 51.0637 8.3943 50.2032 8.25985 49.3517L8.08955 48.0789L8.03577 46.7972L12.9566 46.5552L12.9924 47.6666L13.1448 48.7691C13.2613 49.4951 13.3062 50.2391 13.4675 50.9651L13.9784 53.1252C14.1308 53.8513 14.4355 54.5325 14.6506 55.2406L15.0092 56.2893C15.1436 56.6388 15.3139 56.9615 15.4573 57.3021C15.7711 57.9744 16.0399 58.6645 16.3895 59.3188L17.492 61.2459C17.8326 61.9092 18.3256 62.4649 18.7289 63.0834L14.7224 65.9516L14.7313 65.9337Z" fill="#97D2FF" style="mix-blend-mode:lighten"/>
<path d="M59.1801 71.9927L60.8383 74.9327C59.5297 75.7483 58.0956 76.304 56.6973 76.9494C55.9802 77.2273 55.2452 77.4513 54.5192 77.7113L53.4257 78.0788L52.3053 78.3477C51.5524 78.518 50.8084 78.7152 50.0555 78.8675L47.7699 79.1813C47.008 79.3157 46.2372 79.3336 45.4753 79.3516C44.7045 79.3695 43.9426 79.4412 43.1717 79.4053C37.0409 79.1902 30.91 77.4962 25.7203 74.1708L27.504 71.3026L26.1326 70.4331L23.3092 74.4756C26.4373 76.6536 29.9241 78.276 33.5452 79.4143L36.2969 80.1582L39.1114 80.6243C40.0436 80.8215 41.0026 80.8036 41.9527 80.8843L43.3779 80.9739C43.8529 80.9739 44.328 80.947 44.803 80.9291L46.2282 80.8753C46.7033 80.8753 47.1783 80.8395 47.6534 80.7588L50.4857 80.3734L53.2644 79.7191C54.1965 79.5129 55.0749 79.1364 55.9802 78.8586C59.5566 77.5679 62.9447 75.7483 65.9653 73.4269L62.9447 69.5278C61.7077 70.3883 60.5067 71.3026 59.1711 72.0017L59.1801 71.9927Z" fill="#97D2FF" style="mix-blend-mode:lighten"/>
<path d="M13.5392 25.8499C15.1257 23.1879 17.2141 20.8574 19.4281 18.6973L22.7893 22.3095C20.8891 24.1738 19.0785 26.1726 17.7161 28.4762L13.5392 25.8499Z" fill="#97D2FF" style="mix-blend-mode:lighten"/>
<path d="M78.6572 54.2008C77.4472 58.7721 75.3319 63.1193 72.4367 66.8838L68.5288 63.8811C71.0206 60.6454 72.8401 56.8898 73.8888 52.937L78.6572 54.2008Z" fill="#97D2FF" style="mix-blend-mode:lighten"/>
<path d="M63.6438 14.9685L64.7194 15.6497L65.7232 16.4295C66.3865 16.9583 67.0767 17.4603 67.7041 18.025L64.4415 21.7268C63.9037 21.2338 63.2942 20.8125 62.7295 20.3554L61.8691 19.6742L60.9458 19.0916L63.6527 14.9685H63.6438Z" fill="#97D2FF" style="mix-blend-mode:lighten"/>
<path d="M38.4212 77.4066L37.2291 77.2094C36.8347 77.1466 36.4493 77.0122 36.0638 76.9136L33.7334 76.2862C32.2455 75.6856 30.6949 75.2195 29.2876 74.4308L30.1212 72.7546C31.4478 73.5076 32.9088 73.9378 34.316 74.5114L36.512 75.103C36.8795 75.1926 37.238 75.3271 37.6145 75.3809L38.7349 75.5601L38.4212 77.4066Z" fill="#97D2FF" style="mix-blend-mode:lighten"/>
<path d="M54.4296 76.1517C50.7726 77.3886 46.8915 77.9802 43.0283 77.8816L43.0821 76.0083C46.7212 76.0979 50.3782 75.5422 53.838 74.377L54.4385 76.1517H54.4296Z" fill="#97D2FF" style="mix-blend-mode:lighten"/>
<path d="M79.8852 45.6499L79.697 48.6794L77.6713 48.4733L77.8505 45.614L79.8852 45.6499Z" fill="#97D2FF" style="mix-blend-mode:lighten"/>
<path d="M79.4191 39.3218C79.5446 40.3257 79.7328 41.3295 79.7866 42.3424L77.7609 42.4948C77.7071 41.5447 77.5278 40.5946 77.4113 39.6445L79.4191 39.3218Z" fill="#97D2FF" style="mix-blend-mode:lighten"/>
<path d="M77.8595 33.1819C78.1732 34.141 78.5497 35.0911 78.7469 36.086L76.7749 36.5969C76.5957 35.6557 76.2371 34.7594 75.9414 33.8541L77.8595 33.1819Z" fill="#97D2FF" style="mix-blend-mode:lighten"/>
<path d="M75.2512 27.4097L75.9951 28.7273L76.6226 30.1166L74.7761 30.9591L74.1846 29.6505L73.4765 28.4046L75.2512 27.4097Z" fill="#97D2FF" style="mix-blend-mode:lighten"/>
<path d="M40.2228 90L39.8912 89.9731C33.7424 89.4174 27.6474 87.562 22.2604 84.6131L21.9826 84.4607L21.8661 84.1649C20.9877 81.9869 20.4409 79.6654 20.0017 77.4604C16.757 75.0224 13.835 72.0914 11.3163 68.7392C8.17021 64.401 5.89354 59.4443 4.70143 54.3711C3.33005 53.4389 1.9766 52.4171 0.659006 51.3505L0.381145 51.1264L0.336329 50.7678C-0.237319 46.0711 -0.075981 41.3206 0.811381 36.6597L0.874124 36.3191L1.14302 36.1129C2.44269 35.127 3.832 34.0962 5.41849 33.2088L5.93836 31.5417C6.09073 31.0666 6.27896 30.6274 6.46719 30.1972C6.56579 29.9731 6.66438 29.749 6.75402 29.516C6.87054 29.2471 6.96913 29.0051 7.06773 28.7631C7.23803 28.3508 7.40833 27.9385 7.5876 27.5351L8.44807 25.9307C8.18814 24.9358 7.93716 23.914 7.81168 22.8921L7.76686 22.5605L9.43403 20.0777C9.64018 19.7371 9.92701 19.3606 10.2945 18.9304L11.9706 16.9047C12.2306 16.5731 12.5532 16.1876 12.9476 15.8291L14.803 13.9916C15.3139 13.4359 15.9145 12.9519 16.4971 12.4948L18.9351 10.5408L22.3411 8.3179C22.61 8.1476 22.8879 7.99522 23.1747 7.85181C23.3091 7.78906 23.4346 7.71736 23.5691 7.64565L23.8738 7.47535L24.2144 7.55602C25.2004 7.79803 26.1863 8.06693 27.1275 8.34479C31.7794 6.19361 36.9333 4.93875 42.0692 4.69674C42.8849 3.89005 43.7185 3.13714 44.4445 2.50971C44.9106 2.10636 45.3856 1.70302 45.8696 1.29967C46.2819 0.976994 46.6763 0.69017 47.0886 0.403346L47.6623 0L47.9939 0.0268898C54.1427 0.582611 60.2377 2.438 65.6246 5.38691L65.9025 5.53929L66.019 5.83508C66.8974 8.01315 67.4442 10.3346 67.8834 12.5396C71.1281 14.9776 74.0501 17.9086 76.5688 21.2608C79.7149 25.599 81.9915 30.5557 83.1836 35.62C84.5461 36.5521 85.9085 37.565 87.2261 38.6406L87.5039 38.8647L87.5487 39.2232C88.1224 43.9289 87.9611 48.6705 87.0737 53.3313L87.0109 53.6719L86.7421 53.8781C85.4424 54.8641 84.0531 55.8948 82.4666 56.7822L81.9467 58.4494C81.7943 58.9334 81.6061 59.3726 81.4179 59.7938C81.3193 60.0179 81.2207 60.242 81.1311 60.4661L80.8263 61.2011C80.656 61.6134 80.4857 62.0347 80.2975 62.447L79.437 64.0514C79.6969 65.0463 79.9479 66.0681 80.0734 67.0899L80.1182 67.4216L78.451 69.8954C78.2449 70.236 77.9581 70.6035 77.5906 71.0427L75.9145 73.0684C75.6366 73.418 75.3139 73.7944 74.9464 74.144L73.0821 75.9815C72.5712 76.5372 71.9617 77.0212 71.3791 77.4873L68.941 79.4413L65.535 81.6642C65.2661 81.8345 64.9882 81.9869 64.7014 82.1213C64.567 82.184 64.4415 82.2557 64.307 82.3275L64.0023 82.4978L63.6617 82.4171C62.6757 82.1751 61.6987 81.9062 60.7486 81.6283C56.0967 83.7795 50.9428 85.0344 45.8069 85.2764C44.9912 86.0831 44.1577 86.827 43.4316 87.4634C42.9655 87.8667 42.4905 88.2701 42.0065 88.6734C41.6031 88.9961 41.1998 89.274 40.7964 89.5698L40.2138 89.9821L40.2228 90ZM23.3988 83.1879C28.4092 85.8769 34.0381 87.5889 39.7208 88.1536L39.7657 88.1267C40.1421 87.8578 40.5186 87.5978 40.8861 87.311C41.3432 86.9346 41.8093 86.5402 42.2574 86.1458C43.0283 85.4736 43.9336 84.6579 44.7851 83.7974L45.0361 83.5465L45.3856 83.5285C50.5126 83.3313 55.6665 82.0765 60.2915 79.8895L60.6052 79.746L60.9369 79.8446C61.8601 80.1225 62.8012 80.3914 63.7603 80.6244C63.8051 80.6065 63.8499 80.5796 63.8947 80.5617C64.1188 80.4452 64.3429 80.3376 64.558 80.2032L67.8923 78.0341L70.2586 76.1249C70.8144 75.6767 71.3432 75.2644 71.7914 74.7714L73.7005 72.8802C73.9963 72.6113 74.2383 72.3245 74.5162 71.9749L76.2102 69.9223C76.5329 69.5459 76.757 69.2501 76.9363 68.9632L78.2449 67.0182C78.1194 66.1757 77.8864 65.2883 77.6712 64.4368L77.5189 63.8542L78.6841 61.6941C78.8365 61.3624 78.9978 60.9591 79.1591 60.5647C79.2577 60.3227 79.3653 60.0717 79.4639 59.8297C79.5535 59.6056 79.6521 59.3636 79.7597 59.1306C79.9389 58.7272 80.1003 58.3418 80.2258 57.9564L80.9518 55.599L81.2745 55.4287C82.7713 54.631 84.1158 53.654 85.3617 52.7039C86.1415 48.4553 86.2849 44.135 85.8009 39.8506C84.5102 38.8198 83.1926 37.8428 81.875 36.9555L81.5792 36.7583L81.4986 36.4087C80.3781 31.452 78.1732 26.6029 75.1078 22.3723C72.6339 19.0738 69.7388 16.1966 66.521 13.8213L66.2431 13.6152L66.1714 13.2746C65.7501 11.1592 65.2482 8.91843 64.4505 6.84792C59.44 4.15895 53.8111 2.44697 48.1284 1.88228L48.0925 1.90917C47.7071 2.17807 47.3396 2.438 46.9721 2.73379C46.515 3.11025 46.0489 3.50463 45.6007 3.89901C44.8299 4.57126 43.9336 5.37795 43.0731 6.24739L42.8221 6.49836L42.4726 6.51628C37.3456 6.71348 32.1917 7.96833 27.5667 10.1554L27.253 10.2988L26.9213 10.2002C26.0071 9.92232 25.057 9.66238 24.0979 9.42038C24.0531 9.4383 24.0083 9.46519 23.9635 9.48312C23.7394 9.59964 23.5153 9.7072 23.3002 9.84165L19.9658 12.0108L17.5995 13.9199C17.0438 14.3681 16.515 14.7804 16.0668 15.2644L14.1577 17.1557C13.8619 17.4246 13.6199 17.7114 13.342 18.0609L11.648 20.1135C11.3253 20.49 11.1012 20.7858 10.9219 21.0726L9.61329 23.0176C9.73878 23.8602 9.97182 24.7475 10.1959 25.599L10.3483 26.1817L9.18306 28.3508C9.03964 28.6824 8.87831 29.0768 8.708 29.4712C8.60044 29.7221 8.50185 29.9731 8.39429 30.2241C8.30466 30.4482 8.20606 30.6902 8.0985 30.9322C7.9282 31.3355 7.7579 31.712 7.63241 32.0974L6.90639 34.4547L6.58371 34.625C5.08685 35.4228 3.74236 36.3998 2.49647 37.3499C1.71667 41.5984 1.57326 45.9187 2.05727 50.2032C3.33902 51.2339 4.66558 52.202 5.98318 53.0983L6.27896 53.2955L6.35963 53.6451C7.48004 58.6017 9.685 63.4598 12.7504 67.6815C15.2332 70.98 18.1194 73.8661 21.3372 76.2324L21.6151 76.4386L21.6868 76.7792C22.1081 78.8945 22.61 81.1353 23.4077 83.2059L23.3988 83.1879Z" fill="#97D2FF" style="mix-blend-mode:lighten"/>
<mask id="mask0_193_749" style="mask-type:alpha" maskUnits="userSpaceOnUse" x="28" y="29" width="30" height="30">
<rect x="28" y="29" width="30" height="30" fill="#D9D9D9"/>
</mask>
<g mask="url(#mask0_193_749)">
<path fill-rule="evenodd" clip-rule="evenodd" d="M29.5964 40.4896L30.1031 41.0736C29.8682 41.4855 29.5459 42.3827 29.4663 42.8352C29.1634 42.8487 29.045 42.8352 28.7226 42.8468C28.5188 44.3241 28.5945 44.7031 28.7595 45.7009L29.509 45.7183L29.5304 45.784L29.8507 46.7547L30.14 47.3522L29.6896 48.0213C30.2546 48.9572 30.8273 49.5005 31.5613 50.0671C31.5613 50.0671 31.9418 49.8621 32.2777 49.6861C32.2777 49.6861 32.6117 49.9317 33.1903 50.1947C33.466 50.3204 33.8135 50.4615 34.1785 50.5563C34.1766 50.6356 34.1747 50.6975 34.1727 50.7477V50.7535V50.7941V50.798V50.8057V50.8096V50.8173V50.827V50.8367V50.8463V50.856V50.8657V50.8734V50.8812V50.8889V50.8966V50.9044V50.9121V50.9198V50.9276V50.9353V50.943V50.9508V50.9585V50.9624V50.9662V50.9701V50.974V50.9778V50.9817V50.9856V51.001V51.003V51.0088V51.0165V51.0262V51.0358V51.0455V51.0552V51.0649V51.0745V51.1171V51.1403C34.1727 51.1751 34.1727 51.2137 34.1727 51.2563V51.3027C35.926 51.7571 36.8249 51.4825 37.6191 51.3472C37.687 50.9411 37.6695 50.7555 37.7045 50.5814C37.7045 50.5814 38.186 50.4519 38.6539 50.2488C39.0869 50.0613 39.5102 49.7983 39.5102 49.7983C39.9509 49.9994 39.8441 49.9839 40.248 50.1792C40.248 50.1792 41.2751 49.4696 42.141 48.2378L41.7139 47.5533C41.8634 47.447 42.5352 45.8266 42.4517 45.7376C42.9274 45.6313 42.9759 45.6448 43.2303 45.579C43.4225 44.4962 43.3429 43.6106 43.2497 42.7269L42.4148 42.4774C42.2051 41.7446 42.0226 41.3095 41.6129 40.6501L42.0401 39.983C41.4984 39.1999 40.8382 38.6024 40.0616 38.0551C40.0616 38.0551 39.8422 38.146 39.2655 38.4167C39.2655 38.4167 38.7432 38.1074 37.9821 37.8656C37.7317 37.7864 37.456 37.7129 37.1647 37.6607L37.1608 37.6452L37.157 37.6297L37.1531 37.6143L37.1492 37.6007L37.1453 37.5872L37.1414 37.5737L37.1375 37.5601L37.1337 37.5466L37.1298 37.5331L37.1259 37.5195L37.122 37.5079L37.1181 37.4963L37.1142 37.4847L37.1104 37.4731L37.1065 37.4615L37.1026 37.4499L37.0987 37.4383L37.0948 37.4267L37.0909 37.4151L37.0871 37.4035L37.0832 37.3919L37.0773 37.3726L37.0735 37.3629L37.0696 37.3513L37.0657 37.3416L37.0618 37.332L37.0579 37.3223L37.054 37.3126L37.0502 37.303L37.0463 37.2933L37.0424 37.2836L37.0385 37.2739L37.0346 37.2643L37.0307 37.2546L37.0269 37.2449L37.023 37.2353L37.0191 37.2256L37.0152 37.2159L37.0113 37.2063L37.0074 37.1947L37.0036 37.1831C37.0036 37.1831 36.9977 37.1676 36.9958 37.1618L36.9919 37.1502L36.988 37.1386L36.9841 37.127C36.9841 37.127 36.9783 37.1115 36.9764 37.1038L36.9725 37.0922L36.9686 37.0806L36.9647 37.069L36.9589 37.0554L36.9531 37.0419L36.9473 37.0284L36.9414 37.0148L36.9356 37.0013L36.9298 36.9878L36.924 36.9742L36.9181 36.9607L36.9123 36.9452L36.9065 36.9298L36.9007 36.9143L36.8948 36.8988C35.6969 36.7731 34.8464 36.9066 34.1106 37.0806C33.9688 37.5253 33.9184 37.6955 33.8368 37.9256C33.8368 37.9256 33.5048 38.03 33.1514 38.1924C32.835 38.3375 32.5029 38.5328 32.3379 38.6314C31.9884 38.4864 31.901 38.438 31.569 38.2988C31.569 38.2988 30.3575 39.1631 29.5944 40.5012L29.5964 40.4896ZM36.1512 40.3988C38.2947 40.3988 40.0325 42.1294 40.0325 44.2642C40.0325 46.3989 38.2947 48.1295 36.1512 48.1295C34.0077 48.1295 32.2699 46.3989 32.2699 44.2642C32.2699 42.1294 34.0077 40.3988 36.1512 40.3988Z" fill="#B4E0FF"/>
<path fill-rule="evenodd" clip-rule="evenodd" d="M42.1452 33.148L42.652 33.732C42.417 34.1438 42.0947 35.0411 42.0151 35.4935C41.7103 35.5071 41.5938 35.4935 41.2715 35.5051C41.0676 36.9825 41.1433 37.3615 41.3084 38.3592L42.0559 38.3766L42.0772 38.4424L42.3976 39.4131L42.6869 40.0106L42.2364 40.6796C42.8015 41.6155 43.3742 42.1589 44.1082 42.7254C44.1082 42.7254 44.4887 42.5205 44.8246 42.3445C44.8246 42.3445 45.1586 42.5901 45.7372 42.8531C46.0129 42.9788 46.3604 43.1199 46.7254 43.2147C46.7235 43.2939 46.7215 43.3558 46.7196 43.4061V43.4119V43.4525V43.4564V43.4641V43.468V43.4757V43.4854V43.495V43.5047V43.5144V43.5241V43.5318V43.5395V43.5473V43.555V43.5608V43.5666V43.5724V43.5782V43.5801V43.5859V43.5879V43.5937V43.5956V43.5995V43.6033V43.6072V43.6111V43.6149V43.6188V43.6227V43.6265V43.6304V43.6343V43.6497V43.6517V43.6575V43.6652V43.6749V43.6845V43.6942V43.7039V43.7136V43.7232V43.7658V43.7928C46.7196 43.8257 46.7196 43.8624 46.7196 43.9069V43.9533C48.4729 44.4077 49.3718 44.1332 50.1659 43.9978C50.2339 43.5937 50.2164 43.408 50.2514 43.2321C50.2514 43.2321 50.7329 43.1025 51.2008 42.8995C51.6338 42.7119 52.0571 42.4489 52.0571 42.4489C52.4978 42.65 52.391 42.6346 52.7949 42.8299C52.7949 42.8299 53.822 42.1202 54.6879 40.8885L54.2608 40.2039C54.4103 40.0976 55.0821 38.4772 54.9986 38.3882C55.4743 38.2819 55.5228 38.2954 55.7772 38.2297C55.9694 37.1468 55.8898 36.2612 55.7966 35.3775L54.9617 35.1281C54.752 34.3952 54.5695 33.9601 54.1598 33.3008L54.587 32.6336C54.0453 31.8505 53.3851 31.253 52.6085 30.7058C52.6085 30.7058 52.3891 30.7967 51.8124 31.0674C51.8124 31.0674 51.2901 30.758 50.529 30.5163C50.2786 30.437 50.0028 30.3635 49.7116 30.3113L49.7077 30.2958L49.7038 30.2804L49.7 30.2649L49.6961 30.2514L49.6922 30.2378L49.6883 30.2243L49.6844 30.2108L49.6805 30.1972L49.6767 30.1837L49.6728 30.1702L49.6689 30.1586L49.665 30.147L49.6611 30.1354L49.6572 30.1238L49.6534 30.1121L49.6495 30.1005L49.6456 30.0889L49.6417 30.0773L49.6378 30.0657L49.6339 30.0541L49.6301 30.0425L49.6242 30.0213L49.6203 30.0116L49.6165 30.0019L49.6126 29.9923L49.6087 29.9826L49.6048 29.9729L49.6009 29.9633L49.5971 29.9536L49.5932 29.9439L49.5893 29.9343L49.5854 29.9246L49.5815 29.9149L49.5776 29.9052L49.5738 29.8956L49.5699 29.8859L49.566 29.8762L49.5621 29.8666L49.5582 29.855L49.5543 29.8453L49.5505 29.8337C49.5505 29.8337 49.5446 29.8182 49.5427 29.8124L49.5388 29.8008L49.5349 29.7892L49.531 29.7776C49.531 29.7776 49.5252 29.7622 49.5233 29.7544L49.5194 29.7428L49.5155 29.7312L49.5116 29.7196L49.5058 29.7061L49.5 29.6925L49.4941 29.679L49.4883 29.6655L49.4825 29.6519L49.4767 29.6384L49.4708 29.6249L49.465 29.6113L49.4592 29.5959L49.4534 29.5804L49.4475 29.5649L49.4417 29.5495C48.2438 29.4238 47.3933 29.5572 46.6575 29.7312C46.5157 30.176 46.4653 30.3461 46.3837 30.5762C46.3837 30.5762 46.0517 30.6806 45.6983 30.8431C45.3818 30.9881 45.0498 31.1834 44.8848 31.282C44.5353 31.137 44.4479 31.0886 44.1159 30.9494C44.1159 30.9494 42.9044 31.8138 42.1413 33.1519L42.1452 33.148ZM48.7 33.0571C50.8436 33.0571 52.5813 34.7878 52.5813 36.9225C52.5813 39.0573 50.8436 40.7879 48.7 40.7879C46.5565 40.7879 44.8188 39.0573 44.8188 36.9225C44.8188 34.7878 46.5565 33.0571 48.7 33.0571Z" fill="#B4E0FF"/>
<path fill-rule="evenodd" clip-rule="evenodd" d="M43.9377 46.8361L44.258 47.5381C43.9163 47.8687 43.3533 48.6383 43.1513 49.0502C42.8562 48.9767 42.7455 48.9322 42.4349 48.8529C41.8213 50.2142 41.7883 50.599 41.6641 51.6026L42.3786 51.8269V51.8946L42.4135 52.9156L42.5222 53.5692L41.9009 54.0854C42.1805 55.1412 42.5766 55.8238 43.1203 56.5721C43.1203 56.5721 43.5435 56.4813 43.9144 56.4058C43.9144 56.4058 44.1668 56.7346 44.6464 57.1503C44.8755 57.3495 45.1686 57.5796 45.4929 57.7749C45.4677 57.8503 45.4482 57.9102 45.4327 57.9566V57.9624L45.4172 58.0011V58.005L45.4133 58.0127L45.4113 58.0224L45.4094 58.0321L45.4075 58.0417L45.4055 58.0514L45.4036 58.0591L45.4016 58.0669L45.3997 58.0746L45.3978 58.0823L45.3958 58.0901L45.3939 58.0978L45.3919 58.1055V58.1133V58.121V58.1287V58.1365V58.1442V58.1519V58.1558L45.39 58.1597V58.1635L45.388 58.1674V58.1713L45.3861 58.1751V58.179L45.3842 58.1829V58.1867L45.3783 58.2022V58.21V58.2177L45.3764 58.2254L45.3745 58.2351L45.3725 58.2448L45.3706 58.2544L45.3686 58.2641L45.3667 58.2738C45.3628 58.2834 45.3609 58.295 45.357 58.3047V58.3144H45.3531L45.3473 58.3356C45.3376 58.3704 45.3279 58.4053 45.3162 58.4478L45.3026 58.4923C46.8559 59.4185 47.7976 59.4069 48.5975 59.4997C48.7761 59.1304 48.813 58.9467 48.8946 58.7881C48.8946 58.7881 49.3936 58.7978 49.9003 58.734C50.3683 58.676 50.8478 58.5425 50.8478 58.5425C51.2128 58.8597 51.1158 58.8133 51.4478 59.113C51.4478 59.113 52.6341 58.7204 53.8107 57.7787L53.5932 57.0033C53.7661 56.9434 54.8689 55.5763 54.8145 55.468C55.3019 55.499 55.3446 55.5241 55.6067 55.5338C56.0979 54.5476 56.2707 53.6774 56.4299 52.8015L55.6999 52.3297C55.7057 51.5678 55.6513 51.0999 55.4455 50.3515L56.0435 49.8314C55.7445 48.9284 55.2805 48.1684 54.6883 47.4278C54.6883 47.4278 54.4534 47.453 53.8224 47.5535C53.8224 47.5535 53.4088 47.1107 52.7448 46.666C52.5273 46.519 52.2827 46.374 52.0186 46.2425V46.227V46.2116V46.1961V46.1806V46.1671V46.1535V46.14V46.1265V46.1129V46.0994V46.0859V46.0723V46.0588V46.0472V46.0356V46.024V46.0124V46.0008V45.9892V45.9776V45.966V45.9447V45.9331V45.9215V45.9099V45.8983V45.8867V45.8751V45.8635V45.8519V45.8403V45.8287V45.8171V45.8055V45.7939V45.7823V45.7707V45.7591V45.7475V45.7359V45.7243C52.0186 45.7165 52.0186 45.7088 52.0186 45.7011V45.6895V45.6779V45.6663C52.0186 45.6663 52.0186 45.6489 52.0186 45.6411V45.6276V45.6141V45.6005V45.587V45.5734V45.5599V45.5464V45.5328V45.5174V45.5019V45.4864V45.471V45.4555H52.0167V45.44H52.0147V45.4226H52.0128C50.8983 44.9663 50.0459 44.8561 49.2887 44.8174C49.0266 45.2041 48.9315 45.3549 48.7878 45.5522C48.7878 45.5522 48.4402 45.5599 48.0539 45.616C47.7102 45.6663 47.3355 45.7629 47.1491 45.8094C46.854 45.5734 46.7841 45.5019 46.5045 45.2737C46.5045 45.2737 45.0968 45.7649 43.9882 46.8361H43.9377ZM50.2556 48.5842C52.3137 49.1836 53.4923 51.3319 52.8904 53.3797C52.2885 55.4293 50.1314 56.6031 48.0752 56.0036C46.0171 55.4042 44.8386 53.2559 45.4405 51.2081C46.0424 49.1585 48.1975 47.9847 50.2556 48.5842Z" fill="#B4E0FF"/>
</g>
</svg>
