<svg width="36" height="36" viewBox="0 0 36 36" fill="none" xmlns="http://www.w3.org/2000/svg">
<circle cx="18" cy="18" r="17" fill="white" stroke="url(#paint0_linear_152_39455)" stroke-width="2"/>
<path d="M9.25 11.75C9.25 12.0815 9.3817 12.3995 9.61612 12.6339C9.85054 12.8683 10.1685 13 10.5 13C10.8315 13 11.1495 12.8683 11.3839 12.6339C11.6183 12.3995 11.75 12.0815 11.75 11.75C11.75 11.4185 11.6183 11.1005 11.3839 10.8661C11.1495 10.6317 10.8315 10.5 10.5 10.5C10.1685 10.5 9.85054 10.6317 9.61612 10.8661C9.3817 11.1005 9.25 11.4185 9.25 11.75ZM13 13H26.75V10.5H13V13ZM26.75 19.25H13V16.75H26.75V19.25ZM9.25 18C9.25 18.3315 9.3817 18.6495 9.61612 18.8839C9.85054 19.1183 10.1685 19.25 10.5 19.25C10.8315 19.25 11.1495 19.1183 11.3839 18.8839C11.6183 18.6495 11.75 18.3315 11.75 18C11.75 17.6685 11.6183 17.3505 11.3839 17.1161C11.1495 16.8817 10.8315 16.75 10.5 16.75C10.1685 16.75 9.85054 16.8817 9.61612 17.1161C9.3817 17.3505 9.25 17.6685 9.25 18ZM26.75 25.5H13V23H26.75V25.5ZM9.25 24.25C9.25 24.5815 9.3817 24.8995 9.61612 25.1339C9.85054 25.3683 10.1685 25.5 10.5 25.5C10.8315 25.5 11.1495 25.3683 11.3839 25.1339C11.6183 24.8995 11.75 24.5815 11.75 24.25C11.75 23.9185 11.6183 23.6005 11.3839 23.3661C11.1495 23.1317 10.8315 23 10.5 23C10.1685 23 9.85054 23.1317 9.61612 23.3661C9.3817 23.6005 9.25 23.9185 9.25 24.25Z" fill="url(#paint1_linear_152_39455)"/>
<defs>
<linearGradient id="paint0_linear_152_39455" x1="18" y1="0" x2="18" y2="36" gradientUnits="userSpaceOnUse">
<stop stop-color="#3076B7"/>
<stop offset="1" stop-color="#153451"/>
</linearGradient>
<linearGradient id="paint1_linear_152_39455" x1="18" y1="10.5" x2="18" y2="25.5" gradientUnits="userSpaceOnUse">
<stop stop-color="#3076B7"/>
<stop offset="1" stop-color="#153451"/>
</linearGradient>
</defs>
</svg>
