<?xml version="1.0"?>
<svg width="128" height="54" xmlns="http://www.w3.org/2000/svg" xmlns:svg="http://www.w3.org/2000/svg">
 <g class="layer">
  <title>Layer 1</title>
  <path d="m28.88,15.06c0,2.63 -0.71,5.1 -1.94,7.23l-8.38,-4.84c0.41,-0.7 0.64,-1.51 0.64,-2.38c0,-2.63 -2.13,-4.76 -4.77,-4.76c-2.64,0 -4.77,2.13 -4.77,4.76c0,2.63 2.13,4.77 4.77,4.77l0,9.68c-7.96,-0.02 -14.43,-6.48 -14.43,-14.46c0,-7.98 6.47,-14.44 14.44,-14.44c7.97,0 14.44,6.47 14.44,14.44z" fill="#FDB812" id="svg_1"/>
  <path d="m14.44,19.83l0,6.23l-10.78,-1.38c0,0 1.9,-4.57 7.23,-6.43c1.01,1.15 2.5,1.59 3.55,1.59l0,-0.01z" fill="#A67A02" id="svg_2"/>
  <path d="m14.44,29.51c-2.63,0 -4.77,2.13 -4.77,4.77c0,2.64 2.13,4.76 4.77,4.76c2.64,0 4.77,-2.13 4.77,-4.76c0,-0.87 -0.24,-1.68 -0.64,-2.38l8.38,-4.84c1.23,2.12 1.94,4.59 1.94,7.23c0,7.98 -6.47,14.44 -14.44,14.44c-7.97,0 -14.45,-6.48 -14.45,-14.45c0,-7.97 6.46,-14.44 14.44,-14.44l0,9.68l0,-0.01z" fill="#00B49D" id="svg_3"/>
  <path d="m28.87,34.63c-0.03,1.46 -0.29,2.87 -0.72,4.19c-0.03,0 -5.77,0.29 -9.18,-3.05c0.17,-0.38 0.24,-1.34 0.24,-1.5c0,-0.87 -0.24,-1.68 -0.64,-2.38l6.47,-3.74l3.84,6.47l-0.01,0.01z" fill="#007B6A" id="svg_4"/>
  <path d="m45.51,24.67c0,7.97 -6.47,14.44 -14.44,14.44c-5.34,0 -10,-2.9 -12.5,-7.22l8.38,-4.84c0.82,1.42 2.36,2.38 4.12,2.38c2.63,0 4.77,-2.13 4.77,-4.77c0,-2.64 -2.13,-4.77 -4.77,-4.77c-1.76,0 -3.3,0.96 -4.12,2.38l-8.38,-4.84c2.5,-4.31 7.16,-7.22 12.5,-7.22c7.98,0 14.44,6.47 14.44,14.44l0,0.02z" fill="#00AEEF" id="svg_5"/>
  <path d="m29.91,20.05c-1.47,0.38 -2.48,1.41 -2.96,2.23l-2.35,-1.36l0.19,-5l3.36,-5.4c0.05,0.1 3.01,3.78 1.75,9.53l0.01,0z" fill="#0076A3" id="svg_6"/>
  <path d="m14.44,29.5c-4.29,0 -8.13,-1.87 -10.78,-4.83c2.64,-2.96 6.49,-4.83 10.78,-4.83l0,9.67l0,-0.01z" fill="#00A88E" id="svg_7"/>
  <path d="m28.88,15.06c0,2.63 -0.71,5.1 -1.94,7.22l-8,-4.62l-0.38,-0.22c2.03,-3.5 5.49,-6.08 9.58,-6.92c0.47,1.43 0.73,2.95 0.73,4.54l0.01,0z" fill="#F7941C" id="svg_8"/>
  <path d="m28.88,34.28c0,1.59 -0.26,3.11 -0.73,4.54c-4.09,-0.84 -7.55,-3.42 -9.58,-6.92l8.38,-4.84c1.23,2.13 1.94,4.59 1.94,7.22l-0.01,0z" fill="#0095DA" id="svg_9"/>
  <path d="m103.25,29.13c-0.02,-3.61 -2.97,-6.55 -6.58,-6.55l-8.29,0c-1.33,0 -2.42,-1.09 -2.42,-2.42l0,-0.19c0,-1.33 1.09,-2.42 2.42,-2.42l13.93,0l0,-4.17l-13.93,0c-3.63,0 -6.59,2.96 -6.59,6.59l0,0.19c0,3.63 2.95,6.59 6.59,6.59l8.29,0c1.33,0 2.42,1.09 2.42,2.42l0,0.19c0,1.33 -1.09,2.42 -2.42,2.42l-13.93,0l0,4.17l13.93,0c3.62,0 6.56,-2.94 6.58,-6.55l0,-0.27z" fill="#ffffff" id="svg_10"/>
  <path d="m127.56,29.13c-0.02,-3.61 -2.97,-6.55 -6.58,-6.55l-8.28,0c-1.33,0 -2.42,-1.09 -2.42,-2.42l0,-0.19c0,-1.33 1.09,-2.42 2.42,-2.42l13.93,0l0,-4.17l-13.93,0c-3.63,0 -6.59,2.96 -6.59,6.59l0,0.19c0,3.63 2.95,6.59 6.59,6.59l8.28,0c1.33,0 2.42,1.09 2.42,2.42l0,0.19c0,1.33 -1.09,2.42 -2.42,2.42l-13.93,0l0,4.17l13.93,0c3.62,0 6.56,-2.94 6.58,-6.55l0,-0.27z" fill="#ffffff" id="svg_11"/>
  <path d="m79.11,21.43c-0.42,-4.65 -4.33,-8.3 -9.09,-8.3l-5.53,0c-4.76,0 -8.67,3.66 -9.09,8.3l-0.05,0l0,5.69c0.03,5.02 4.11,9.09 9.14,9.09l5.53,0c5.02,0 9.11,-4.07 9.14,-9.09l0,-5.69l-0.04,0l-0.01,0zm-4.12,5.64c0,2.74 -2.23,4.97 -4.97,4.97l-5.53,0c-2.74,0 -4.97,-2.23 -4.97,-4.97l0,-4.81c0,-2.74 2.23,-4.97 4.97,-4.97l5.53,0c2.74,0 4.96,2.22 4.97,4.96l0,4.82z" fill="#ffffff" id="svg_12"/>
  <path d="m57.49,42.99l0.82,0l2.09,5.21l2.1,-5.21l0.82,0l-2.6,6.39l-0.64,0l-2.59,-6.39zm-0.27,0l0.72,0l0.12,3.9l0,2.49l-0.84,0l0,-6.39zm5.64,0l0.73,0l0,6.39l-0.85,0l0,-2.49l0.12,-3.9zm1.88,4.07l0,-0.1c0,-0.34 0.05,-0.66 0.15,-0.96c0.1,-0.29 0.24,-0.55 0.43,-0.76c0.18,-0.22 0.41,-0.39 0.68,-0.51c0.26,-0.13 0.56,-0.19 0.89,-0.19c0.34,0 0.64,0.06 0.9,0.19c0.27,0.12 0.5,0.29 0.69,0.51c0.19,0.21 0.34,0.47 0.44,0.76c0.1,0.3 0.14,0.62 0.14,0.96l0,0.1c0,0.34 -0.04,0.66 -0.14,0.95c-0.1,0.3 -0.25,0.55 -0.44,0.77c-0.19,0.22 -0.41,0.39 -0.68,0.51c-0.26,0.12 -0.56,0.18 -0.9,0.18c-0.33,0 -0.63,-0.06 -0.9,-0.18c-0.26,-0.12 -0.49,-0.29 -0.68,-0.51c-0.19,-0.22 -0.33,-0.47 -0.43,-0.77c-0.1,-0.29 -0.15,-0.61 -0.15,-0.95zm0.81,-0.1l0,0.1c0,0.24 0.03,0.46 0.08,0.67c0.06,0.21 0.14,0.39 0.25,0.55c0.12,0.17 0.26,0.29 0.43,0.39c0.17,0.09 0.37,0.13 0.59,0.13c0.23,0 0.42,-0.04 0.59,-0.13c0.17,-0.1 0.31,-0.22 0.42,-0.39c0.11,-0.16 0.19,-0.34 0.25,-0.55c0.06,-0.21 0.09,-0.43 0.09,-0.67l0,-0.1c0,-0.24 -0.03,-0.46 -0.09,-0.67c-0.06,-0.21 -0.14,-0.39 -0.26,-0.55c-0.11,-0.17 -0.25,-0.3 -0.42,-0.39c-0.16,-0.09 -0.36,-0.14 -0.59,-0.14c-0.22,0 -0.41,0.05 -0.58,0.14c-0.17,0.09 -0.31,0.22 -0.43,0.39c-0.11,0.16 -0.19,0.34 -0.25,0.55c-0.05,0.21 -0.08,0.43 -0.08,0.67zm4.53,-4.33l0.82,0l0,5.83l-0.07,0.92l-0.75,0l0,-6.75zm4.03,4.34l0,0.09c0,0.34 -0.04,0.67 -0.12,0.96c-0.09,0.29 -0.21,0.55 -0.36,0.77c-0.16,0.21 -0.36,0.38 -0.58,0.5c-0.23,0.12 -0.49,0.18 -0.79,0.18c-0.3,0 -0.57,-0.05 -0.8,-0.15c-0.22,-0.11 -0.41,-0.26 -0.57,-0.45c-0.15,-0.2 -0.28,-0.44 -0.37,-0.72c-0.09,-0.28 -0.15,-0.59 -0.19,-0.94l0,-0.4c0.04,-0.35 0.1,-0.67 0.19,-0.95c0.09,-0.27 0.22,-0.51 0.37,-0.71c0.16,-0.2 0.35,-0.35 0.57,-0.45c0.23,-0.11 0.49,-0.16 0.79,-0.16c0.3,0 0.56,0.06 0.8,0.18c0.23,0.11 0.42,0.27 0.58,0.49c0.15,0.21 0.27,0.47 0.36,0.77c0.08,0.29 0.12,0.62 0.12,0.99zm-0.82,0.09l0,-0.09c0,-0.24 -0.02,-0.46 -0.06,-0.67c-0.05,-0.21 -0.12,-0.4 -0.21,-0.56c-0.1,-0.16 -0.23,-0.28 -0.39,-0.37c-0.15,-0.1 -0.35,-0.14 -0.58,-0.14c-0.21,0 -0.38,0.03 -0.54,0.1c-0.15,0.07 -0.27,0.17 -0.38,0.29c-0.11,0.11 -0.19,0.25 -0.26,0.4c-0.06,0.15 -0.11,0.31 -0.14,0.47l0,1.06c0.04,0.2 0.12,0.4 0.22,0.59c0.11,0.19 0.26,0.34 0.44,0.46c0.18,0.12 0.4,0.18 0.67,0.18c0.22,0 0.4,-0.04 0.56,-0.13c0.16,-0.09 0.29,-0.22 0.38,-0.37c0.1,-0.16 0.18,-0.35 0.22,-0.55c0.05,-0.21 0.07,-0.43 0.07,-0.67zm2.73,-2.43l0,4.75l-0.82,0l0,-4.75l0.82,0zm-0.88,-1.26c0,-0.13 0.04,-0.25 0.12,-0.34c0.08,-0.09 0.2,-0.13 0.36,-0.13c0.16,0 0.28,0.04 0.36,0.13c0.08,0.09 0.13,0.21 0.13,0.34c0,0.12 -0.05,0.23 -0.13,0.32c-0.08,0.09 -0.2,0.13 -0.36,0.13c-0.16,0 -0.28,-0.04 -0.36,-0.13c-0.08,-0.09 -0.12,-0.2 -0.12,-0.32zm3.07,-0.74l0,6.75l-0.82,0l0,-6.75l0.82,0zm2.19,2l0,4.75l-0.82,0l0,-4.75l0.82,0zm-0.88,-1.26c0,-0.13 0.04,-0.25 0.12,-0.34c0.08,-0.09 0.2,-0.13 0.36,-0.13c0.15,0 0.27,0.04 0.35,0.13c0.09,0.09 0.13,0.21 0.13,0.34c0,0.12 -0.04,0.23 -0.13,0.32c-0.08,0.09 -0.2,0.13 -0.35,0.13c-0.16,0 -0.28,-0.04 -0.36,-0.13c-0.08,-0.09 -0.12,-0.2 -0.12,-0.32zm4.17,1.26l0,0.62l-2.57,0l0,-0.62l2.57,0zm-1.7,-1.16l0.82,0l0,4.74c0,0.16 0.02,0.28 0.07,0.36c0.05,0.08 0.12,0.14 0.19,0.16c0.08,0.03 0.17,0.04 0.26,0.04c0.07,0 0.14,0 0.21,-0.01c0.08,-0.02 0.13,-0.03 0.17,-0.04l0.01,0.66c-0.07,0.02 -0.15,0.04 -0.26,0.06c-0.1,0.02 -0.23,0.03 -0.37,0.03c-0.2,0 -0.38,-0.04 -0.55,-0.12c-0.17,-0.08 -0.3,-0.21 -0.4,-0.39c-0.1,-0.19 -0.15,-0.44 -0.15,-0.76l0,-4.73zm3.99,5.42l1.33,-4.26l0.87,0l-1.91,5.49c-0.04,0.11 -0.1,0.24 -0.18,0.38c-0.07,0.13 -0.16,0.26 -0.27,0.39c-0.11,0.12 -0.24,0.22 -0.4,0.3c-0.16,0.07 -0.34,0.11 -0.56,0.11c-0.07,0 -0.15,0 -0.25,-0.02c-0.1,-0.02 -0.17,-0.03 -0.21,-0.05l0,-0.66c0.02,0.01 0.06,0.01 0.11,0.01c0.05,0.01 0.09,0.01 0.11,0.01c0.18,0 0.34,-0.02 0.47,-0.07c0.13,-0.05 0.23,-0.13 0.32,-0.24c0.09,-0.12 0.17,-0.27 0.24,-0.47l0.33,-0.92zm-0.97,-4.26l1.24,3.69l0.21,0.86l-0.59,0.3l-1.74,-4.85l0.88,0zm8.44,-1.64l0,6.39l-0.83,0l0,-6.39l0.83,0zm2.06,0l0,0.69l-4.94,0l0,-0.69l4.94,0zm2.36,6.48c-0.33,0 -0.63,-0.05 -0.9,-0.17c-0.27,-0.11 -0.5,-0.27 -0.69,-0.47c-0.19,-0.21 -0.34,-0.45 -0.44,-0.73c-0.1,-0.29 -0.15,-0.59 -0.15,-0.93l0,-0.18c0,-0.39 0.05,-0.73 0.17,-1.03c0.11,-0.31 0.27,-0.57 0.46,-0.78c0.2,-0.21 0.42,-0.37 0.67,-0.48c0.25,-0.11 0.51,-0.16 0.78,-0.16c0.34,0 0.63,0.06 0.87,0.18c0.25,0.11 0.46,0.28 0.62,0.49c0.15,0.21 0.27,0.45 0.35,0.74c0.07,0.28 0.11,0.59 0.11,0.92l0,0.36l-3.55,0l0,-0.66l2.74,0l0,-0.06c-0.01,-0.21 -0.06,-0.42 -0.13,-0.62c-0.08,-0.19 -0.19,-0.36 -0.36,-0.49c-0.16,-0.13 -0.38,-0.19 -0.65,-0.19c-0.19,0 -0.36,0.04 -0.51,0.12c-0.16,0.07 -0.29,0.19 -0.4,0.34c-0.12,0.15 -0.2,0.34 -0.26,0.56c-0.06,0.22 -0.1,0.47 -0.1,0.76l0,0.18c0,0.23 0.04,0.44 0.1,0.64c0.06,0.2 0.15,0.37 0.27,0.52c0.13,0.15 0.27,0.27 0.45,0.35c0.17,0.09 0.37,0.13 0.6,0.13c0.28,0 0.53,-0.06 0.72,-0.18c0.2,-0.12 0.38,-0.27 0.53,-0.47l0.49,0.39c-0.1,0.16 -0.23,0.31 -0.39,0.45c-0.16,0.14 -0.35,0.25 -0.59,0.34c-0.22,0.09 -0.5,0.13 -0.81,0.13zm4.7,-0.67c0.2,0 0.37,-0.04 0.54,-0.12c0.16,-0.07 0.3,-0.18 0.4,-0.32c0.11,-0.14 0.17,-0.3 0.18,-0.48l0.78,0c-0.02,0.28 -0.11,0.54 -0.29,0.79c-0.17,0.24 -0.4,0.43 -0.68,0.58c-0.28,0.15 -0.59,0.22 -0.93,0.22c-0.35,0 -0.67,-0.06 -0.93,-0.19c-0.27,-0.12 -0.49,-0.3 -0.66,-0.52c-0.17,-0.22 -0.31,-0.47 -0.39,-0.75c-0.09,-0.29 -0.13,-0.59 -0.13,-0.91l0,-0.19c0,-0.32 0.04,-0.62 0.13,-0.9c0.08,-0.29 0.22,-0.54 0.39,-0.76c0.17,-0.22 0.39,-0.39 0.66,-0.52c0.26,-0.13 0.58,-0.19 0.93,-0.19c0.37,0 0.7,0.08 0.98,0.23c0.28,0.15 0.5,0.35 0.65,0.61c0.16,0.26 0.25,0.56 0.27,0.88l-0.78,0c-0.01,-0.19 -0.07,-0.37 -0.16,-0.53c-0.1,-0.16 -0.23,-0.28 -0.39,-0.38c-0.16,-0.09 -0.35,-0.14 -0.57,-0.14c-0.25,0 -0.46,0.05 -0.63,0.15c-0.16,0.09 -0.3,0.23 -0.39,0.39c-0.1,0.17 -0.17,0.35 -0.22,0.55c-0.04,0.2 -0.06,0.41 -0.06,0.61l0,0.19c0,0.21 0.02,0.41 0.06,0.61c0.05,0.21 0.11,0.39 0.21,0.55c0.1,0.17 0.23,0.3 0.4,0.4c0.17,0.1 0.38,0.14 0.63,0.14zm3.62,-6.17l0,6.75l-0.81,0l0,-6.75l0.81,0zm-0.19,4.2l-0.34,-0.02c0.01,-0.32 0.05,-0.62 0.15,-0.9c0.09,-0.28 0.22,-0.52 0.39,-0.72c0.17,-0.21 0.38,-0.37 0.61,-0.48c0.24,-0.11 0.5,-0.17 0.79,-0.17c0.23,0 0.44,0.03 0.63,0.1c0.19,0.06 0.35,0.16 0.48,0.3c0.13,0.13 0.23,0.31 0.31,0.53c0.07,0.22 0.1,0.48 0.1,0.8l0,3.11l-0.82,0l0,-3.12c0,-0.25 -0.03,-0.45 -0.11,-0.6c-0.07,-0.15 -0.18,-0.26 -0.32,-0.33c-0.14,-0.07 -0.31,-0.1 -0.52,-0.1c-0.2,0 -0.38,0.04 -0.55,0.12c-0.16,0.09 -0.3,0.21 -0.42,0.36c-0.12,0.14 -0.21,0.32 -0.28,0.51c-0.07,0.19 -0.1,0.39 -0.1,0.61zm4.73,-3.84l0.82,0l2.1,5.21l2.09,-5.21l0.82,0l-2.6,6.39l-0.64,0l-2.59,-6.39zm-0.27,0l0.73,0l0.12,3.9l0,2.49l-0.85,0l0,-6.39zm5.64,0l0.73,0l0,6.39l-0.85,0l0,-2.49l0.12,-3.9zm4.9,5.58l0,-2.45c0,-0.18 -0.04,-0.35 -0.11,-0.49c-0.08,-0.14 -0.19,-0.24 -0.34,-0.32c-0.15,-0.08 -0.33,-0.11 -0.55,-0.11c-0.21,0 -0.39,0.03 -0.54,0.1c-0.15,0.07 -0.27,0.16 -0.36,0.28c-0.09,0.11 -0.13,0.24 -0.13,0.37l-0.81,0c0,-0.17 0.04,-0.34 0.13,-0.51c0.09,-0.17 0.21,-0.32 0.38,-0.45c0.16,-0.14 0.36,-0.25 0.59,-0.33c0.24,-0.08 0.5,-0.12 0.79,-0.12c0.34,0 0.65,0.06 0.91,0.18c0.27,0.11 0.48,0.29 0.62,0.53c0.16,0.23 0.23,0.53 0.23,0.88l0,2.22c0,0.15 0.02,0.32 0.04,0.5c0.03,0.18 0.07,0.33 0.13,0.46l0,0.07l-0.85,0c-0.04,-0.09 -0.07,-0.21 -0.1,-0.37c-0.02,-0.16 -0.03,-0.3 -0.03,-0.44zm0.14,-2.07l0.01,0.57l-0.82,0c-0.23,0 -0.44,0.02 -0.62,0.06c-0.18,0.03 -0.34,0.09 -0.46,0.16c-0.12,0.08 -0.22,0.17 -0.28,0.28c-0.06,0.11 -0.1,0.23 -0.1,0.38c0,0.15 0.04,0.29 0.1,0.41c0.07,0.12 0.17,0.22 0.31,0.29c0.14,0.07 0.3,0.11 0.5,0.11c0.25,0 0.47,-0.05 0.66,-0.16c0.19,-0.1 0.34,-0.23 0.45,-0.39c0.12,-0.15 0.18,-0.3 0.19,-0.44l0.35,0.39c-0.02,0.12 -0.08,0.26 -0.17,0.41c-0.09,0.15 -0.21,0.29 -0.37,0.43c-0.14,0.14 -0.32,0.25 -0.53,0.34c-0.21,0.09 -0.44,0.13 -0.7,0.13c-0.32,0 -0.6,-0.06 -0.85,-0.19c-0.23,-0.12 -0.42,-0.29 -0.56,-0.5c-0.13,-0.22 -0.19,-0.46 -0.19,-0.72c0,-0.25 0.05,-0.48 0.14,-0.67c0.1,-0.2 0.25,-0.36 0.44,-0.49c0.18,-0.13 0.41,-0.23 0.67,-0.3c0.27,-0.07 0.56,-0.1 0.88,-0.1l0.95,0zm2.76,-0.96l0,5.67l-0.81,0l0,-6.58l0.74,0l0.07,0.91zm3.21,1.43l0,0.09c0,0.34 -0.04,0.67 -0.13,0.96c-0.08,0.29 -0.2,0.55 -0.35,0.77c-0.16,0.21 -0.35,0.38 -0.58,0.5c-0.23,0.12 -0.49,0.18 -0.79,0.18c-0.3,0 -0.57,-0.05 -0.8,-0.15c-0.23,-0.1 -0.43,-0.24 -0.59,-0.43c-0.16,-0.19 -0.29,-0.42 -0.38,-0.69c-0.1,-0.27 -0.16,-0.57 -0.2,-0.9l0,-0.49c0.04,-0.35 0.1,-0.67 0.2,-0.95c0.1,-0.27 0.23,-0.51 0.38,-0.71c0.16,-0.2 0.36,-0.35 0.59,-0.45c0.23,-0.11 0.49,-0.16 0.79,-0.16c0.3,0 0.56,0.06 0.79,0.18c0.24,0.11 0.43,0.27 0.59,0.49c0.16,0.21 0.28,0.47 0.35,0.77c0.09,0.29 0.13,0.62 0.13,0.99zm-0.82,0.09l0,-0.09c0,-0.24 -0.02,-0.46 -0.07,-0.67c-0.05,-0.21 -0.13,-0.4 -0.24,-0.56c-0.1,-0.16 -0.23,-0.28 -0.39,-0.37c-0.16,-0.1 -0.36,-0.14 -0.58,-0.14c-0.2,0 -0.38,0.03 -0.53,0.1c-0.15,0.07 -0.28,0.17 -0.39,0.29c-0.1,0.11 -0.19,0.25 -0.26,0.4c-0.06,0.15 -0.11,0.31 -0.14,0.47l0,1.14c0.06,0.2 0.14,0.39 0.25,0.58c0.1,0.17 0.24,0.32 0.42,0.43c0.17,0.11 0.39,0.16 0.66,0.16c0.22,0 0.41,-0.04 0.57,-0.13c0.16,-0.1 0.29,-0.22 0.39,-0.39c0.11,-0.16 0.19,-0.34 0.24,-0.55c0.05,-0.21 0.07,-0.43 0.07,-0.67z" fill="#ffffff" id="svg_13"/>
 </g>
</svg>