<svg width="128" height="54" viewBox="0 0 128 54" fill="none" xmlns="http://www.w3.org/2000/svg">
<path d="M28.88 15.0565C28.88 17.6865 28.17 20.1565 26.94 22.2865L18.56 17.4465C18.97 16.7465 19.2 15.9365 19.2 15.0665C19.2 12.4365 17.07 10.3065 14.43 10.3065C11.79 10.3065 9.66 12.4365 9.66 15.0665C9.66 17.6965 11.79 19.8365 14.43 19.8365V29.5165C6.47 29.4965 0 23.0365 0 15.0565C0 7.07645 6.47 0.616455 14.44 0.616455C22.41 0.616455 28.88 7.08645 28.88 15.0565Z" fill="#FDB812"/>
<path d="M14.4402 19.8265V26.0565L3.66016 24.6765C3.66016 24.6765 5.56016 20.1065 10.8902 18.2465C11.9002 19.3965 13.3902 19.8365 14.4402 19.8365V19.8265Z" fill="#A67A02"/>
<path d="M14.44 29.5065C11.81 29.5065 9.67 31.6365 9.67 34.2765C9.67 36.9165 11.8 39.0365 14.44 39.0365C17.08 39.0365 19.21 36.9065 19.21 34.2765C19.21 33.4065 18.97 32.5965 18.57 31.8965L26.95 27.0565C28.18 29.1765 28.89 31.6465 28.89 34.2865C28.89 42.2665 22.42 48.7265 14.45 48.7265C6.48 48.7265 0 42.2465 0 34.2765C0 26.3065 6.46 19.8365 14.44 19.8365V29.5165V29.5065Z" fill="#00B49D"/>
<path d="M28.8698 34.6265C28.8398 36.0865 28.5798 37.4965 28.1498 38.8165C28.1198 38.8165 22.3798 39.1065 18.9698 35.7665C19.1398 35.3865 19.2098 34.4265 19.2098 34.2665C19.2098 33.3965 18.9698 32.5865 18.5698 31.8865L25.0398 28.1465L28.8798 34.6165L28.8698 34.6265Z" fill="#007B6A"/>
<path d="M45.5098 24.6665C45.5098 32.6365 39.0398 39.1065 31.0698 39.1065C25.7298 39.1065 21.0698 36.2065 18.5698 31.8865L26.9498 27.0465C27.7698 28.4665 29.3098 29.4265 31.0698 29.4265C33.6998 29.4265 35.8398 27.2965 35.8398 24.6565C35.8398 22.0165 33.7098 19.8865 31.0698 19.8865C29.3098 19.8865 27.7698 20.8465 26.9498 22.2665L18.5698 17.4265C21.0698 13.1165 25.7298 10.2065 31.0698 10.2065C39.0498 10.2065 45.5098 16.6765 45.5098 24.6465V24.6665Z" fill="#00AEEF"/>
<path d="M29.9101 20.0465C28.4401 20.4265 27.4301 21.4565 26.9501 22.2765L24.6001 20.9165L24.7901 15.9165L28.1501 10.5165C28.2001 10.6165 31.1601 14.2965 29.9001 20.0465H29.9101Z" fill="#0076A3"/>
<path d="M14.4402 29.4965C10.1502 29.4965 6.31016 27.6265 3.66016 24.6665C6.30016 21.7065 10.1502 19.8365 14.4402 19.8365V29.5065V29.4965Z" fill="#00A88E"/>
<path d="M28.8801 15.0565C28.8801 17.6865 28.1701 20.1565 26.9401 22.2765L18.9401 17.6565L18.5601 17.4365C20.5901 13.9365 24.0501 11.3565 28.1401 10.5165C28.6101 11.9465 28.8701 13.4665 28.8701 15.0565H28.8801Z" fill="#F7941C"/>
<path d="M28.8798 34.2765C28.8798 35.8665 28.6198 37.3865 28.1498 38.8165C24.0598 37.9765 20.5998 35.3965 18.5698 31.8965L26.9498 27.0565C28.1798 29.1865 28.8898 31.6465 28.8898 34.2765H28.8798Z" fill="#0095DA"/>
<path d="M103.25 29.1265C103.23 25.5165 100.28 22.5765 96.67 22.5765H88.38C87.05 22.5765 85.96 21.4865 85.96 20.1565V19.9665C85.96 18.6365 87.05 17.5465 88.38 17.5465H102.31V13.3765H88.38C84.75 13.3765 81.79 16.3365 81.79 19.9665V20.1565C81.79 23.7865 84.74 26.7465 88.38 26.7465H96.67C98 26.7465 99.09 27.8365 99.09 29.1665V29.3565C99.09 30.6865 98 31.7765 96.67 31.7765H82.74V35.9465H96.67C100.29 35.9465 103.23 33.0065 103.25 29.3965V29.1265Z" fill="#111111"/>
<path d="M127.56 29.1265C127.54 25.5165 124.59 22.5765 120.98 22.5765H112.7C111.37 22.5765 110.28 21.4865 110.28 20.1565V19.9665C110.28 18.6365 111.37 17.5465 112.7 17.5465H126.63V13.3765H112.7C109.07 13.3765 106.11 16.3365 106.11 19.9665V20.1565C106.11 23.7865 109.06 26.7465 112.7 26.7465H120.98C122.31 26.7465 123.4 27.8365 123.4 29.1665V29.3565C123.4 30.6865 122.31 31.7765 120.98 31.7765H107.05V35.9465H120.98C124.6 35.9465 127.54 33.0065 127.56 29.3965V29.1265Z" fill="#111111"/>
<path d="M79.1101 21.4265C78.6901 16.7765 74.7801 13.1265 70.0201 13.1265H64.4901C59.7301 13.1265 55.8201 16.7865 55.4001 21.4265H55.3501V27.1165C55.3801 32.1365 59.4601 36.2065 64.4901 36.2065H70.0201C75.0401 36.2065 79.1301 32.1365 79.1601 27.1165V21.4265H79.1201H79.1101ZM74.9901 27.0665C74.9901 29.8065 72.7601 32.0365 70.0201 32.0365H64.4901C61.7501 32.0365 59.5201 29.8065 59.5201 27.0665V22.2565C59.5201 19.5165 61.7501 17.2865 64.4901 17.2865H70.0201C72.7601 17.2865 74.9801 19.5065 74.9901 22.2465V27.0665Z" fill="#111111"/>
<path d="M57.4854 42.9851H58.3071L60.4033 48.2014L62.4951 42.9851H63.3213L60.7197 49.3835H60.0781L57.4854 42.9851ZM57.2173 42.9851H57.9424L58.061 46.8875V49.3835H57.2173V42.9851ZM62.8599 42.9851H63.585V49.3835H62.7412V46.8875L62.8599 42.9851ZM64.7363 47.0588V46.9578C64.7363 46.615 64.7861 46.2971 64.8857 46.0042C64.9854 45.7083 65.1289 45.4519 65.3164 45.2351C65.5039 45.0154 65.731 44.8455 65.9976 44.7253C66.2642 44.6023 66.563 44.5408 66.894 44.5408C67.228 44.5408 67.5283 44.6023 67.7949 44.7253C68.0645 44.8455 68.293 45.0154 68.4805 45.2351C68.6709 45.4519 68.8159 45.7083 68.9155 46.0042C69.0151 46.2971 69.0649 46.615 69.0649 46.9578V47.0588C69.0649 47.4016 69.0151 47.7195 68.9155 48.0125C68.8159 48.3054 68.6709 48.5618 68.4805 48.7815C68.293 48.9983 68.0659 49.1682 67.7993 49.2913C67.5356 49.4114 67.2368 49.4714 66.9028 49.4714C66.5688 49.4714 66.2686 49.4114 66.002 49.2913C65.7354 49.1682 65.5068 48.9983 65.3164 48.7815C65.1289 48.5618 64.9854 48.3054 64.8857 48.0125C64.7861 47.7195 64.7363 47.4016 64.7363 47.0588ZM65.5493 46.9578V47.0588C65.5493 47.2961 65.5771 47.5203 65.6328 47.7312C65.6885 47.9392 65.772 48.1238 65.8833 48.2849C65.9976 48.446 66.1396 48.5735 66.3096 48.6672C66.4795 48.7581 66.6772 48.8035 66.9028 48.8035C67.1255 48.8035 67.3203 48.7581 67.4873 48.6672C67.6572 48.5735 67.7979 48.446 67.9092 48.2849C68.0205 48.1238 68.104 47.9392 68.1597 47.7312C68.2183 47.5203 68.2476 47.2961 68.2476 47.0588V46.9578C68.2476 46.7234 68.2183 46.5022 68.1597 46.2942C68.104 46.0833 68.019 45.8972 67.9048 45.7361C67.7935 45.572 67.6528 45.4431 67.4829 45.3494C67.3159 45.2556 67.1196 45.2087 66.894 45.2087C66.6714 45.2087 66.4751 45.2556 66.3052 45.3494C66.1382 45.4431 65.9976 45.572 65.8833 45.7361C65.772 45.8972 65.6885 46.0833 65.6328 46.2942C65.5771 46.5022 65.5493 46.7234 65.5493 46.9578ZM70.0801 42.6335H70.8975V48.4607L70.8271 49.3835H70.0801V42.6335ZM74.1099 46.9666V47.0588C74.1099 47.4045 74.0688 47.7253 73.9868 48.0212C73.9048 48.3142 73.7847 48.5691 73.6265 48.7859C73.4683 49.0027 73.2749 49.1711 73.0464 49.2913C72.8179 49.4114 72.5557 49.4714 72.2598 49.4714C71.958 49.4714 71.6929 49.4202 71.4644 49.3176C71.2388 49.2122 71.0483 49.0613 70.8931 48.865C70.7378 48.6687 70.6133 48.4314 70.5195 48.1531C70.4287 47.8748 70.3657 47.5613 70.3306 47.2126V46.8083C70.3657 46.4568 70.4287 46.1418 70.5195 45.8635C70.6133 45.5852 70.7378 45.3479 70.8931 45.1516C71.0483 44.9524 71.2388 44.8015 71.4644 44.699C71.6899 44.5935 71.9521 44.5408 72.251 44.5408C72.5498 44.5408 72.8149 44.5994 73.0464 44.7166C73.2778 44.8308 73.4712 44.9949 73.6265 45.2087C73.7847 45.4226 73.9048 45.679 73.9868 45.9778C74.0688 46.2737 74.1099 46.6033 74.1099 46.9666ZM73.2925 47.0588V46.9666C73.2925 46.7292 73.2705 46.5066 73.2266 46.2986C73.1826 46.0876 73.1123 45.9031 73.0156 45.7449C72.9189 45.5837 72.7915 45.4578 72.6333 45.3669C72.4751 45.2732 72.2803 45.2263 72.0488 45.2263C71.8438 45.2263 71.665 45.2615 71.5127 45.3318C71.3633 45.4021 71.2358 45.4973 71.1304 45.6174C71.0249 45.7346 70.9385 45.8694 70.8711 46.0217C70.8066 46.1711 70.7583 46.3264 70.7261 46.4875V47.5466C70.7729 47.7517 70.8491 47.9495 70.9546 48.1399C71.063 48.3274 71.2065 48.4812 71.3853 48.6013C71.5669 48.7214 71.791 48.7815 72.0576 48.7815C72.2773 48.7815 72.4648 48.7375 72.6201 48.6497C72.7783 48.5588 72.9058 48.4343 73.0024 48.2761C73.1021 48.1179 73.1753 47.9348 73.2222 47.7268C73.269 47.5188 73.2925 47.2961 73.2925 47.0588ZM76.0215 44.6287V49.3835H75.2041V44.6287H76.0215ZM75.1426 43.3674C75.1426 43.2356 75.1821 43.1243 75.2612 43.0334C75.3433 42.9426 75.4634 42.8972 75.6216 42.8972C75.7769 42.8972 75.8955 42.9426 75.9775 43.0334C76.0625 43.1243 76.105 43.2356 76.105 43.3674C76.105 43.4934 76.0625 43.6018 75.9775 43.6926C75.8955 43.7805 75.7769 43.8245 75.6216 43.8245C75.4634 43.8245 75.3433 43.7805 75.2612 43.6926C75.1821 43.6018 75.1426 43.4934 75.1426 43.3674ZM78.21 42.6335V49.3835H77.3926V42.6335H78.21ZM80.3984 44.6287V49.3835H79.5811V44.6287H80.3984ZM79.5195 43.3674C79.5195 43.2356 79.5591 43.1243 79.6382 43.0334C79.7202 42.9426 79.8403 42.8972 79.9985 42.8972C80.1538 42.8972 80.2725 42.9426 80.3545 43.0334C80.4395 43.1243 80.4819 43.2356 80.4819 43.3674C80.4819 43.4934 80.4395 43.6018 80.3545 43.6926C80.2725 43.7805 80.1538 43.8245 79.9985 43.8245C79.8403 43.8245 79.7202 43.7805 79.6382 43.6926C79.5591 43.6018 79.5195 43.4934 79.5195 43.3674ZM83.6943 44.6287V45.2527H81.1235V44.6287H83.6943ZM81.9937 43.4729H82.8066V48.2058C82.8066 48.3669 82.8315 48.4885 82.8813 48.5706C82.9312 48.6526 82.9956 48.7068 83.0747 48.7332C83.1538 48.7595 83.2388 48.7727 83.3296 48.7727C83.397 48.7727 83.4673 48.7668 83.5405 48.7551C83.6167 48.7405 83.6738 48.7288 83.7119 48.72L83.7163 49.3835C83.6519 49.4041 83.5669 49.4231 83.4614 49.4407C83.3589 49.4612 83.2344 49.4714 83.0879 49.4714C82.8887 49.4714 82.7056 49.4319 82.5386 49.3528C82.3716 49.2737 82.2383 49.1418 82.1387 48.9573C82.042 48.7698 81.9937 48.5178 81.9937 48.2014V43.4729ZM85.9839 48.8914L87.3066 44.6287H88.1768L86.2695 50.1174C86.2256 50.2346 86.167 50.3606 86.0938 50.4954C86.0234 50.6331 85.9326 50.7634 85.8213 50.8865C85.71 51.0095 85.5752 51.1091 85.417 51.1853C85.2617 51.2644 85.0757 51.304 84.8589 51.304C84.7944 51.304 84.7124 51.2952 84.6128 51.2776C84.5132 51.26 84.4429 51.2454 84.4019 51.2336L84.3975 50.5745C84.4209 50.5774 84.4575 50.5803 84.5073 50.5833C84.5601 50.5891 84.5967 50.592 84.6172 50.592C84.8018 50.592 84.9585 50.5671 85.0874 50.5173C85.2163 50.4705 85.3247 50.3899 85.4126 50.2756C85.5034 50.1643 85.5811 50.0105 85.6455 49.8142L85.9839 48.8914ZM85.0127 44.6287L86.2476 48.3201L86.4585 49.177L85.874 49.4758L84.125 44.6287H85.0127ZM93.4546 42.9851V49.3835H92.6196V42.9851H93.4546ZM95.5112 42.9851V43.6794H90.5674V42.9851H95.5112ZM97.8711 49.4714C97.54 49.4714 97.2397 49.4158 96.9702 49.3044C96.7036 49.1902 96.4736 49.0305 96.2803 48.8254C96.0898 48.6204 95.9434 48.3772 95.8408 48.0959C95.7383 47.8147 95.687 47.5071 95.687 47.1731V46.9885C95.687 46.6018 95.7441 46.2576 95.8584 45.9558C95.9727 45.6511 96.1279 45.3933 96.3242 45.1824C96.5205 44.9714 96.7432 44.8118 96.9922 44.7034C97.2412 44.595 97.499 44.5408 97.7656 44.5408C98.1055 44.5408 98.3984 44.5994 98.6445 44.7166C98.8936 44.8337 99.0972 44.9978 99.2554 45.2087C99.4136 45.4167 99.5308 45.6628 99.6069 45.947C99.6831 46.2283 99.7212 46.5359 99.7212 46.8699V47.2346H96.1704V46.571H98.9082V46.5095C98.8965 46.2986 98.8525 46.0935 98.7764 45.8943C98.7031 45.6951 98.5859 45.531 98.4248 45.4021C98.2637 45.2732 98.0439 45.2087 97.7656 45.2087C97.5811 45.2087 97.4111 45.2483 97.2559 45.3274C97.1006 45.4036 96.9673 45.5178 96.856 45.6702C96.7446 45.8225 96.6582 46.0085 96.5967 46.2283C96.5352 46.448 96.5044 46.7014 96.5044 46.9885V47.1731C96.5044 47.3987 96.5352 47.6111 96.5967 47.8103C96.6611 48.0066 96.7534 48.1794 96.8735 48.3289C96.9966 48.4783 97.1445 48.5955 97.3174 48.6804C97.4932 48.7654 97.6924 48.8079 97.915 48.8079C98.2021 48.8079 98.4453 48.7493 98.6445 48.6321C98.8438 48.5149 99.0181 48.3582 99.1675 48.1619L99.6597 48.553C99.5571 48.7083 99.4268 48.8562 99.2686 48.9968C99.1104 49.1375 98.9155 49.2517 98.6841 49.3396C98.4556 49.4275 98.1846 49.4714 97.8711 49.4714ZM102.573 48.8035C102.767 48.8035 102.945 48.7639 103.109 48.6848C103.273 48.6057 103.408 48.4973 103.514 48.3596C103.619 48.219 103.679 48.0593 103.694 47.8806H104.467C104.453 48.1619 104.357 48.4241 104.182 48.6672C104.009 48.9075 103.782 49.1023 103.5 49.2517C103.219 49.3982 102.91 49.4714 102.573 49.4714C102.216 49.4714 101.904 49.4084 101.637 49.2825C101.374 49.1565 101.154 48.9836 100.978 48.7639C100.805 48.5442 100.675 48.2922 100.587 48.0081C100.502 47.7209 100.459 47.4177 100.459 47.0984V46.9138C100.459 46.5945 100.502 46.2927 100.587 46.0085C100.675 45.7214 100.805 45.468 100.978 45.2483C101.154 45.0286 101.374 44.8557 101.637 44.7297C101.904 44.6038 102.216 44.5408 102.573 44.5408C102.945 44.5408 103.271 44.6169 103.549 44.7693C103.827 44.9187 104.045 45.1238 104.204 45.3845C104.365 45.6423 104.453 45.9353 104.467 46.2634H103.694C103.679 46.0671 103.624 45.8899 103.527 45.7317C103.433 45.5735 103.304 45.4475 103.14 45.3538C102.979 45.2571 102.79 45.2087 102.573 45.2087C102.324 45.2087 102.115 45.2585 101.945 45.3582C101.778 45.4548 101.645 45.5867 101.545 45.7537C101.448 45.9177 101.378 46.1008 101.334 46.303C101.293 46.5022 101.272 46.7058 101.272 46.9138V47.0984C101.272 47.3064 101.293 47.5115 101.334 47.7136C101.375 47.9158 101.444 48.0989 101.541 48.2629C101.64 48.427 101.773 48.5588 101.94 48.6584C102.11 48.7551 102.321 48.8035 102.573 48.8035ZM106.194 42.6335V49.3835H105.381V42.6335H106.194ZM106.001 46.8259L105.663 46.8127C105.666 46.4875 105.714 46.1873 105.808 45.9119C105.901 45.6335 106.033 45.3918 106.203 45.1868C106.373 44.9817 106.575 44.8235 106.81 44.7122C107.047 44.5979 107.309 44.5408 107.596 44.5408C107.831 44.5408 108.042 44.573 108.229 44.6375C108.417 44.699 108.576 44.7986 108.708 44.9363C108.843 45.074 108.945 45.2527 109.016 45.4724C109.086 45.6892 109.121 45.9543 109.121 46.2678V49.3835H108.304V46.259C108.304 46.01 108.267 45.8108 108.194 45.6614C108.121 45.509 108.014 45.3992 107.873 45.3318C107.732 45.2615 107.56 45.2263 107.354 45.2263C107.152 45.2263 106.968 45.2688 106.801 45.3538C106.637 45.4387 106.495 45.5559 106.375 45.7053C106.257 45.8547 106.165 46.0261 106.098 46.2195C106.033 46.4099 106.001 46.6121 106.001 46.8259ZM110.729 42.9851H111.551L113.647 48.2014L115.739 42.9851H116.565L113.964 49.3835H113.322L110.729 42.9851ZM110.461 42.9851H111.187L111.305 46.8875V49.3835H110.461V42.9851ZM116.104 42.9851H116.829V49.3835H115.985V46.8875L116.104 42.9851ZM121 48.5706V46.1228C121 45.9353 120.961 45.7727 120.885 45.635C120.812 45.4944 120.701 45.386 120.551 45.3098C120.402 45.2336 120.217 45.1956 119.998 45.1956C119.792 45.1956 119.612 45.2307 119.457 45.301C119.305 45.3713 119.185 45.4636 119.097 45.5779C119.012 45.6921 118.969 45.8152 118.969 45.947H118.156C118.156 45.7771 118.2 45.6086 118.288 45.4417C118.376 45.2747 118.502 45.1238 118.666 44.989C118.833 44.8513 119.032 44.7429 119.264 44.6638C119.498 44.5818 119.759 44.5408 120.046 44.5408C120.392 44.5408 120.696 44.5994 120.96 44.7166C121.227 44.8337 121.435 45.011 121.584 45.2483C121.736 45.4827 121.812 45.7771 121.812 46.1316V48.3464C121.812 48.5046 121.826 48.6731 121.852 48.8518C121.881 49.0305 121.924 49.1843 121.979 49.3132V49.3835H121.131C121.09 49.2898 121.058 49.1653 121.035 49.01C121.011 48.8518 121 48.7053 121 48.5706ZM121.14 46.5007L121.149 47.072H120.327C120.096 47.072 119.889 47.0911 119.708 47.1292C119.526 47.1643 119.374 47.2185 119.25 47.2917C119.127 47.365 119.034 47.4573 118.969 47.5686C118.905 47.677 118.873 47.8044 118.873 47.9509C118.873 48.1003 118.906 48.2366 118.974 48.3596C119.041 48.4827 119.142 48.5808 119.277 48.6541C119.415 48.7244 119.583 48.7595 119.782 48.7595C120.031 48.7595 120.251 48.7068 120.441 48.6013C120.632 48.4958 120.783 48.3669 120.894 48.2146C121.008 48.0623 121.07 47.9143 121.079 47.7708L121.426 48.1619C121.405 48.2849 121.35 48.4211 121.259 48.5706C121.168 48.72 121.046 48.8635 120.894 49.0012C120.745 49.136 120.566 49.2488 120.358 49.3396C120.153 49.4275 119.921 49.4714 119.664 49.4714C119.341 49.4714 119.059 49.4084 118.815 49.2825C118.575 49.1565 118.388 48.988 118.253 48.7771C118.121 48.5632 118.055 48.3245 118.055 48.0608C118.055 47.8059 118.105 47.5818 118.205 47.3884C118.304 47.1921 118.448 47.0295 118.635 46.9006C118.823 46.7688 119.048 46.6692 119.312 46.6018C119.576 46.5344 119.87 46.5007 120.195 46.5007H121.14ZM123.904 45.5427V51.2117H123.087V44.6287H123.834L123.904 45.5427ZM127.108 46.9666V47.0588C127.108 47.4045 127.067 47.7253 126.985 48.0212C126.903 48.3142 126.783 48.5691 126.625 48.7859C126.469 49.0027 126.277 49.1711 126.049 49.2913C125.82 49.4114 125.558 49.4714 125.262 49.4714C124.96 49.4714 124.694 49.4216 124.462 49.322C124.231 49.2224 124.035 49.0774 123.874 48.887C123.712 48.6965 123.583 48.468 123.487 48.2014C123.393 47.9348 123.329 47.6345 123.293 47.3005V46.8083C123.329 46.4568 123.395 46.1418 123.491 45.8635C123.588 45.5852 123.715 45.3479 123.874 45.1516C124.035 44.9524 124.229 44.8015 124.458 44.699C124.687 44.5935 124.95 44.5408 125.249 44.5408C125.548 44.5408 125.813 44.5994 126.044 44.7166C126.276 44.8308 126.471 44.9949 126.629 45.2087C126.787 45.4226 126.906 45.679 126.985 45.9778C127.067 46.2737 127.108 46.6033 127.108 46.9666ZM126.291 47.0588V46.9666C126.291 46.7292 126.266 46.5066 126.216 46.2986C126.166 46.0876 126.088 45.9031 125.983 45.7449C125.88 45.5837 125.749 45.4578 125.587 45.3669C125.426 45.2732 125.234 45.2263 125.012 45.2263C124.807 45.2263 124.628 45.2615 124.476 45.3318C124.326 45.4021 124.199 45.4973 124.093 45.6174C123.988 45.7346 123.901 45.8694 123.834 46.0217C123.77 46.1711 123.721 46.3264 123.689 46.4875V47.6257C123.748 47.8308 123.83 48.0242 123.935 48.2058C124.041 48.3845 124.181 48.5295 124.357 48.6409C124.533 48.7493 124.754 48.8035 125.021 48.8035C125.24 48.8035 125.429 48.7581 125.587 48.6672C125.749 48.5735 125.88 48.446 125.983 48.2849C126.088 48.1238 126.166 47.9392 126.216 47.7312C126.266 47.5203 126.291 47.2961 126.291 47.0588Z" fill="#111111"/>
</svg>
