<svg width="319" height="50" viewBox="0 0 319 50" fill="none" xmlns="http://www.w3.org/2000/svg">
<g clip-path="url(#clip0_170_3000)">
<path d="M12.0596 17.055H12.1596C14.6295 14.157 17.2195 13.178 20.6094 13.178C27.1891 13.178 29.1591 17.241 28.2091 23.1251L25.8092 37.9381H17.1195L19.0094 26.2581C19.3794 23.9671 20.4094 19.953 16.1195 19.953C12.5896 19.953 11.1696 22.5181 10.6897 25.514L8.67973 37.9381H0L3.87988 13.971H12.5696L12.0696 17.055H12.0596Z" fill="#004187"/>
<path d="M46.1185 4.76797C45.6985 7.38202 43.1486 9.53593 40.4787 9.53593C37.8088 9.53593 35.9588 7.38202 36.3788 4.76797C36.7988 2.15391 39.3487 0 42.0186 0C44.6886 0 46.5385 2.15391 46.1185 4.76797Z" fill="#D7000F"/>
<path d="M40.2788 37.9381H31.5991L35.479 13.9709H44.1587L40.2788 37.9381Z" fill="#004187"/>
<path d="M52.4183 49.8923H43.7385L49.5283 13.9612H58.2181L52.4283 49.8923H52.4183Z" fill="#004187"/>
<path d="M95.137 37.9381H86.4473L90.3271 13.9709H99.0169L95.137 37.9381Z" fill="#004187"/>
<path d="M83.7073 13.1191C80.1074 13.1191 76.5975 14.5681 73.8476 16.9081C73.8476 16.9081 69.6978 20.09 68.6178 25.6412C68.5978 25.7293 68.5778 25.8272 68.5678 25.9153C68.5478 26.0132 68.5478 26.1013 68.5278 26.1992C67.9278 28.9993 65.1779 31.2511 62.278 31.2511C59.3781 31.2511 57.2181 28.8427 57.6981 25.9153C58.1681 22.9879 61.018 20.5893 64.0079 20.5893C65.5779 20.5893 66.8878 21.255 67.7078 22.3026C69.0478 18.6703 71.6277 16.399 72.5777 15.6549C70.6577 14.059 68.1178 13.1191 65.2079 13.1191C58.0281 13.1191 51.1983 18.8955 50.0684 25.9153C48.9284 32.9449 53.8982 38.7115 61.068 38.7115C64.6679 38.7115 68.1778 37.2625 70.9277 34.9225C75.2176 31.6329 76.1675 26.1307 76.1675 26.1307C76.1775 26.0524 76.1975 25.9838 76.2075 25.9153C76.2175 25.8468 76.2275 25.7684 76.2375 25.6999C76.8175 22.8705 79.5874 20.5893 82.4973 20.5893C85.4073 20.5893 87.5572 22.9977 87.0772 25.9153C86.6072 28.8427 83.7573 31.2511 80.7674 31.2511C79.1974 31.2511 77.8975 30.5854 77.0675 29.5378C76.5875 30.8791 75.2376 33.9141 72.1977 36.1855C74.1176 37.7716 76.6575 38.7213 79.5574 38.7213C86.7372 38.7213 93.567 32.9449 94.707 25.9251C95.8469 18.8955 90.8771 13.1289 83.7073 13.1289V13.1191Z" fill="url(#paint0_linear_170_3000)"/>
<path d="M112.636 40.0823H114.606L117.476 44.6153H117.496L118.226 40.0823H120.196L118.996 47.4839H117.026L114.156 42.9509H114.136L113.406 47.4839H111.437L112.636 40.0823Z" fill="#727171"/>
<path d="M125.856 47.4937H124.026L124.116 46.9356H124.096C123.696 47.435 123.026 47.6601 122.426 47.6601C120.896 47.6601 120.026 46.4167 120.266 44.9678C120.496 43.5285 121.756 42.2852 123.276 42.2852C123.866 42.2852 124.456 42.5005 124.766 42.9411L124.846 42.4516H126.676L125.866 47.4937H125.856ZM122.156 44.9775C122.056 45.6139 122.406 46.1034 123.146 46.1034C123.886 46.1034 124.396 45.6139 124.506 44.9775C124.606 44.3607 124.256 43.8418 123.516 43.8418C122.776 43.8418 122.256 44.3607 122.156 44.9775Z" fill="#727171"/>
<path d="M129.066 47.4937H127.236L127.816 43.9299H127.226L127.466 42.4516H128.056L128.306 40.9438H130.136L129.896 42.4516H130.926L130.686 43.9299H129.656L129.076 47.4937H129.066Z" fill="#727171"/>
<path d="M132.506 47.4936H130.676L131.486 42.4515H133.316L132.496 47.4936H132.506ZM133.746 40.513C133.656 41.0613 133.126 41.5117 132.556 41.5117C131.986 41.5117 131.606 41.0613 131.696 40.513C131.786 39.9648 132.316 39.5144 132.886 39.5144C133.456 39.5144 133.836 39.9648 133.746 40.513Z" fill="#727171"/>
<path d="M139.936 44.9775C139.656 46.6909 138.056 47.6601 136.406 47.6601C134.756 47.6601 133.466 46.7007 133.746 44.9775C134.026 43.2544 135.626 42.2852 137.276 42.2852C138.926 42.2852 140.216 43.2544 139.936 44.9775ZM135.666 44.9775C135.566 45.6139 135.916 46.1034 136.656 46.1034C137.396 46.1034 137.906 45.6139 138.016 44.9775C138.116 44.3607 137.766 43.8418 137.026 43.8418C136.286 43.8418 135.766 44.3607 135.666 44.9775Z" fill="#727171"/>
<path d="M142.886 43.0978H142.906C143.426 42.4908 143.966 42.2852 144.686 42.2852C146.066 42.2852 146.486 43.1369 146.286 44.3803L145.786 47.4937H143.956L144.356 45.0363C144.436 44.5565 144.646 43.7146 143.746 43.7146C143.006 43.7146 142.706 44.253 142.606 44.8796L142.186 47.4937H140.356L141.166 42.4516H142.996L142.896 43.0978H142.886Z" fill="#727171"/>
<path d="M152.605 47.4937H150.775L150.865 46.9356H150.845C150.445 47.435 149.775 47.6601 149.175 47.6601C147.655 47.6601 146.776 46.4167 147.016 44.9678C147.245 43.5285 148.505 42.2852 150.025 42.2852C150.615 42.2852 151.205 42.5005 151.515 42.9411L151.595 42.4516H153.415L152.605 47.4937ZM148.905 44.9775C148.805 45.6139 149.155 46.1034 149.895 46.1034C150.635 46.1034 151.145 45.6139 151.255 44.9775C151.355 44.3607 151.005 43.8418 150.265 43.8418C149.525 43.8418 149.005 44.3607 148.905 44.9775Z" fill="#727171"/>
<path d="M155.645 47.4936H153.815L155.135 39.3381H156.965L155.645 47.4936Z" fill="#727171"/>
<path d="M162.295 47.4936H160.325L161.525 40.092H163.495L162.295 47.4936Z" fill="#727171"/>
<path d="M166.585 47.4937H164.615L165.545 41.7173H163.925L164.185 40.0823H169.405L169.145 41.7173H167.525L166.595 47.4937H166.585Z" fill="#727171"/>
<path d="M174.324 47.4936H172.354L173.554 40.092H175.524L174.324 47.4936Z" fill="#727171"/>
<path d="M178.104 43.0978H178.124C178.644 42.4908 179.194 42.2852 179.904 42.2852C181.284 42.2852 181.704 43.1369 181.504 44.3803L181.004 47.4937H179.174L179.574 45.0363C179.654 44.5565 179.864 43.7146 178.964 43.7146C178.224 43.7146 177.924 44.253 177.824 44.8796L177.404 47.4937H175.574L176.394 42.4516H178.214L178.114 43.0978H178.104Z" fill="#727171"/>
<path d="M186.164 46.9258H186.144C185.744 47.4251 185.074 47.6503 184.474 47.6503C182.954 47.6503 182.074 46.4069 182.314 44.9579C182.544 43.5187 183.804 42.2753 185.324 42.2753C185.914 42.2753 186.504 42.4907 186.814 42.9313L187.394 39.3284H189.224L187.904 47.4838H186.074L186.164 46.9258ZM184.194 44.9775C184.094 45.6139 184.444 46.1034 185.184 46.1034C185.924 46.1034 186.434 45.6139 186.544 44.9775C186.644 44.3607 186.294 43.8418 185.554 43.8418C184.814 43.8418 184.294 44.3607 184.194 44.9775Z" fill="#727171"/>
<path d="M191.654 42.4514L191.214 45.1438C191.114 45.7802 191.194 46.2305 191.954 46.2305C192.714 46.2305 192.944 45.7802 193.044 45.1438L193.474 42.4514H195.304L194.814 45.4865C194.544 47.1411 193.264 47.66 191.724 47.66C190.184 47.66 189.064 47.1508 189.334 45.4865L189.824 42.4514H191.654Z" fill="#727171"/>
<path d="M199.654 43.7439C199.394 43.5971 199.024 43.4992 198.714 43.4992C198.504 43.4992 198.134 43.5873 198.084 43.8418C198.034 44.1845 198.594 44.2335 198.834 44.2824C199.664 44.4489 200.234 44.8405 200.084 45.7804C199.864 47.1021 198.544 47.6503 197.354 47.6503C196.624 47.6503 195.934 47.4447 195.374 47.0727L196.244 45.8293C196.574 46.0839 197.154 46.3384 197.604 46.3384C197.834 46.3384 198.194 46.2307 198.234 45.9566C198.294 45.565 197.724 45.5454 197.184 45.3985C196.634 45.2517 196.114 44.9775 196.254 44.0768C196.454 42.8432 197.684 42.2852 198.804 42.2852C199.384 42.2852 199.954 42.3733 200.444 42.6082L199.654 43.7439Z" fill="#727171"/>
<path d="M202.794 47.4937H200.964L201.544 43.9299H200.954L201.194 42.4516H201.784L202.024 40.9438H203.854L203.604 42.4516H204.633L204.393 43.9299H203.364L202.784 47.4937H202.794Z" fill="#727171"/>
<path d="M206.913 43.274H206.933C207.383 42.6572 208.033 42.3831 208.743 42.3831H209.093L208.813 44.1062C208.583 43.9691 208.353 43.9397 208.073 43.9397C207.063 43.9397 206.703 44.5957 206.564 45.4573L206.234 47.4937H204.404L205.214 42.4516H207.043L206.913 43.274Z" fill="#727171"/>
<path d="M209.413 42.4514H211.523L212.483 45.0361L214.243 42.4514H216.323L210.983 49.9999H208.933L211.203 46.7984L209.423 42.4514H209.413Z" fill="#727171"/>
<path d="M220.583 40.0823H223.593C225.213 40.0823 226.223 40.8166 225.943 42.5201C225.663 44.2726 224.573 45.0363 222.863 45.0363H221.753L221.353 47.4937H219.393L220.593 40.0921L220.583 40.0823ZM222.003 43.4796H222.333C223.043 43.4796 223.743 43.4796 223.893 42.5789C224.043 41.6488 223.393 41.639 222.633 41.639H222.303L222.003 43.4796Z" fill="#727171"/>
<path d="M228.483 43.274H228.503C228.953 42.6572 229.603 42.3831 230.313 42.3831H230.663L230.383 44.1062C230.153 43.9691 229.923 43.9397 229.643 43.9397C228.633 43.9397 228.273 44.5957 228.133 45.4573L227.803 47.4937H225.973L226.783 42.4516H228.613L228.483 43.274Z" fill="#727171"/>
<path d="M236.563 44.9775C236.283 46.6909 234.683 47.6601 233.033 47.6601C231.383 47.6601 230.093 46.7007 230.363 44.9775C230.643 43.2544 232.243 42.2852 233.903 42.2852C235.563 42.2852 236.843 43.2544 236.563 44.9775ZM232.293 44.9775C232.193 45.6139 232.543 46.1034 233.283 46.1034C234.023 46.1034 234.533 45.6139 234.643 44.9775C234.743 44.3607 234.393 43.8418 233.653 43.8418C232.913 43.8418 232.393 44.3607 232.293 44.9775Z" fill="#727171"/>
<path d="M239.523 43.0782H239.543C240.063 42.5201 240.633 42.2852 241.293 42.2852C242.032 42.2852 242.632 42.5789 242.892 43.2446C243.342 42.618 244.092 42.2852 244.792 42.2852C246.092 42.2852 246.412 43.1173 246.222 44.2824L245.702 47.4937H243.872L244.262 45.0852C244.342 44.5663 244.502 43.7146 243.732 43.7146C242.892 43.7146 242.732 44.488 242.632 45.0852L242.242 47.4937H240.413L240.803 45.0852C240.893 44.5272 241.033 43.6754 240.223 43.6754C239.413 43.6754 239.273 44.5272 239.183 45.0852L238.793 47.4937H236.963L237.783 42.4516H239.613L239.513 43.0782H239.523Z" fill="#727171"/>
<path d="M253.122 44.9775C252.842 46.6909 251.242 47.6601 249.592 47.6601C247.942 47.6601 246.652 46.7007 246.922 44.9775C247.202 43.2544 248.802 42.2852 250.452 42.2852C252.102 42.2852 253.392 43.2544 253.122 44.9775ZM248.852 44.9775C248.752 45.6139 249.102 46.1034 249.842 46.1034C250.582 46.1034 251.092 45.6139 251.202 44.9775C251.302 44.3607 250.952 43.8418 250.212 43.8418C249.472 43.8418 248.952 44.3607 248.852 44.9775Z" fill="#727171"/>
<path d="M255.532 47.4937H253.712L254.292 43.9299H253.702L253.942 42.4516H254.532L254.782 40.9438H256.602L256.352 42.4516H257.382L257.142 43.9299H256.112L255.532 47.4937Z" fill="#727171"/>
<path d="M258.972 47.4936H257.142L257.952 42.4515H259.782L258.972 47.4936ZM260.212 40.513C260.122 41.0613 259.592 41.5117 259.022 41.5117C258.452 41.5117 258.072 41.0613 258.162 40.513C258.252 39.9648 258.782 39.5144 259.352 39.5144C259.922 39.5144 260.302 39.9648 260.212 40.513Z" fill="#727171"/>
<path d="M266.402 44.9775C266.122 46.6909 264.522 47.6601 262.872 47.6601C261.222 47.6601 259.932 46.7007 260.202 44.9775C260.482 43.2544 262.082 42.2852 263.732 42.2852C265.382 42.2852 266.672 43.2544 266.392 44.9775H266.402ZM262.132 44.9775C262.032 45.6139 262.382 46.1034 263.122 46.1034C263.862 46.1034 264.372 45.6139 264.472 44.9775C264.572 44.3607 264.222 43.8418 263.482 43.8418C262.742 43.8418 262.222 44.3607 262.122 44.9775H262.132Z" fill="#727171"/>
<path d="M269.371 43.0978C269.891 42.4908 270.431 42.2852 271.151 42.2852C272.531 42.2852 272.951 43.1369 272.751 44.3803L272.251 47.4937H270.431L270.831 45.0363C270.911 44.5565 271.121 43.7146 270.221 43.7146C269.481 43.7146 269.181 44.253 269.081 44.8796L268.662 47.4937H266.842L267.652 42.4516H269.481L269.371 43.0978Z" fill="#727171"/>
<path d="M279.061 46.2013L278.331 47.4839H276.241L280.351 40.0823H282.501L284.151 47.4839H282.051L281.771 46.2013H279.061ZM281.051 42.3732H281.031L279.841 44.7328H281.471L281.051 42.3732Z" fill="#727171"/>
<path d="M290.441 46.9944C290.091 49.1385 288.871 50.0001 286.981 50.0001C285.801 50.0001 284.311 49.4028 284.361 48.0811H286.411C286.431 48.2574 286.541 48.3846 286.691 48.463C286.841 48.5413 287.021 48.5804 287.191 48.5804C288.171 48.5804 288.461 47.9538 288.601 47.1412L288.641 46.9063C288.101 47.3664 287.581 47.5916 286.891 47.5916C285.391 47.5916 284.541 46.4755 284.771 45.0167C285.011 43.5481 286.281 42.2852 287.851 42.2852C288.451 42.2852 288.971 42.481 289.251 42.9803H289.271L289.351 42.4516H291.181L290.451 46.9944H290.441ZM286.661 44.9384C286.561 45.5748 286.911 46.0643 287.651 46.0643C288.391 46.0643 288.901 45.5748 289.011 44.9384C289.111 44.3216 288.761 43.8027 288.021 43.8027C287.281 43.8027 286.761 44.3216 286.661 44.9384Z" fill="#727171"/>
<path d="M297.151 45.2713H293.311C293.191 45.9958 293.521 46.3874 294.271 46.3874C294.661 46.3874 294.961 46.2601 295.221 45.9272H296.981C296.501 47.1119 295.261 47.6504 294.081 47.6504C292.371 47.6504 291.251 46.7105 291.541 44.9678C291.811 43.2838 293.151 42.2754 294.821 42.2754C296.601 42.2754 297.461 43.3523 297.181 45.0755L297.151 45.2615V45.2713ZM295.621 44.2433C295.611 43.7635 295.211 43.4502 294.721 43.4502C294.191 43.4502 293.701 43.7244 293.511 44.2433H295.631H295.621Z" fill="#727171"/>
<path d="M300.161 43.0978H300.181C300.701 42.4908 301.25 42.2852 301.96 42.2852C303.34 42.2852 303.76 43.1369 303.56 44.3803L303.06 47.4937H301.23L301.63 45.0363C301.71 44.5565 301.92 43.7146 301.02 43.7146C300.281 43.7146 299.981 44.253 299.881 44.8796L299.461 47.4937H297.631L298.451 42.4516H300.281L300.171 43.0978H300.161Z" fill="#727171"/>
<path d="M308.52 44.0964C308.28 43.9006 307.98 43.744 307.63 43.744C306.93 43.744 306.29 44.2726 306.18 44.9678C306.06 45.6923 306.51 46.2014 307.26 46.2014C307.58 46.2014 307.95 46.0741 308.23 45.8587L307.99 47.3664C307.56 47.5623 307.1 47.6504 306.66 47.6504C305.14 47.6504 304.04 46.544 304.29 45.0167C304.55 43.4013 306 42.2754 307.61 42.2754C308.03 42.2754 308.44 42.3733 308.77 42.5691L308.53 44.0866L308.52 44.0964Z" fill="#727171"/>
<path d="M309.16 42.4514H311.27L312.23 45.0361L313.99 42.4514H316.07L310.73 49.9999H308.69L310.96 46.7984L309.18 42.4514H309.16Z" fill="#727171"/>
<path d="M120.586 21.8426C120.036 21.402 119.606 20.8929 119.306 20.2957C118.486 21.216 117.376 21.9601 115.986 22.5181C114.826 22.9685 113.706 23.223 112.616 23.2622L113.026 20.7362C114.726 20.5502 116.036 20.0411 116.936 19.1894C117.666 18.504 118.166 17.5543 118.426 16.3403H113.886L114.276 13.9417H126.376L125.986 16.3403H121.416C121.286 17.525 121.486 18.4649 122.006 19.1698C122.646 20.0118 123.776 20.5209 125.396 20.7167L125.076 22.7041C126.606 22.9489 127.816 23.6049 128.686 24.6622C129.666 25.7979 130.016 27.1686 129.766 28.7547C129.476 30.5463 128.536 32.0247 126.946 33.1995C125.446 34.2863 123.816 34.8345 122.026 34.8345C120.236 34.8345 118.796 34.2863 117.686 33.1995C116.496 32.0247 116.036 30.5463 116.326 28.7547C116.566 27.2567 117.286 25.9546 118.466 24.8482C119.576 23.8202 120.876 23.1349 122.386 22.7922C121.696 22.5475 121.096 22.2244 120.586 21.8328V21.8426ZM120.856 26.1993C119.946 26.9043 119.416 27.756 119.256 28.7449C119.096 29.7239 119.356 30.5659 120.036 31.2708C120.686 31.9561 121.506 32.2988 122.486 32.2988C123.466 32.2988 124.416 31.9561 125.296 31.2708C126.206 30.5659 126.736 29.7239 126.896 28.7449C127.056 27.7462 126.796 26.8945 126.116 26.1993C125.466 25.5434 124.636 25.2203 123.636 25.2203C122.636 25.2203 121.726 25.5532 120.866 26.1993H120.856ZM129.696 17.2117L130.226 13.9514H133.006L131.486 23.3209H128.716L129.316 19.6006H126.016L126.406 17.2019H129.706L129.696 17.2117Z" fill="#727171"/>
<path d="M154.285 22.7433C154.185 23.3797 153.965 23.8398 153.635 24.1237C153.335 24.3783 152.905 24.4958 152.335 24.4958H146.525L145.595 30.2428H154.345L153.955 32.6904H133.736L134.126 30.2428H142.876L143.806 24.4958H137.946C137.386 24.4958 137.006 24.3685 136.786 24.1237C136.566 23.8398 136.506 23.3797 136.606 22.7433L138.026 13.9514H140.796L140.346 16.7319H152.485L152.935 13.9514H155.705L154.285 22.7433ZM139.476 22.1069H151.615L152.105 19.0914H139.966L139.476 22.1069Z" fill="#727171"/>
<path d="M170.135 22.2341L169.995 23.0761H178.744L178.374 25.3964H173.265C173.725 25.8762 174.065 26.4147 174.275 27.0119C174.505 27.6483 174.565 28.3336 174.445 29.0679C174.165 30.7812 173.245 32.2008 171.685 33.3267C170.205 34.4037 168.565 34.9422 166.775 34.9422C164.985 34.9422 163.535 34.4037 162.405 33.3267C161.205 32.2008 160.745 30.7812 161.015 29.0679C161.125 28.3532 161.395 27.6678 161.825 27.0119C162.205 26.4342 162.705 25.8958 163.325 25.3964H158.195L158.565 23.0761H167.285L167.425 22.2341H161.045C160.485 22.2341 160.105 22.1068 159.885 21.8327C159.645 21.539 159.585 21.0593 159.685 20.4033L160.725 13.9709H179.494L179.124 16.2619H163.185L163.065 16.9864H179.004L178.644 19.2089H162.705L162.585 19.9627H178.544L178.174 22.2341H170.145H170.135ZM165.385 26.493C164.475 27.2077 163.935 28.0692 163.775 29.0679C163.615 30.0469 163.875 30.8987 164.555 31.6134C165.225 32.2987 166.085 32.6414 167.115 32.6414C168.145 32.6414 169.065 32.2987 169.965 31.6134C170.895 30.8987 171.435 30.0469 171.595 29.0679C171.755 28.0692 171.485 27.2077 170.785 26.493C170.115 25.8174 169.275 25.4846 168.265 25.4846C167.255 25.4846 166.265 25.8174 165.375 26.493H165.385Z" fill="#727171"/>
<path d="M191.404 13.9612C191.044 16.2032 191.104 17.9459 191.594 19.1795C192.194 20.6187 193.404 21.4509 195.224 21.6859L194.804 24.2804C193.474 24.2021 192.324 23.8692 191.334 23.272C190.214 22.5866 189.424 21.6076 188.944 20.3446C188.024 21.6076 186.854 22.5866 185.414 23.2915C184.204 23.8888 182.984 24.2118 181.764 24.2706L182.184 21.6957C184.124 21.4313 185.594 20.5894 186.604 19.1697C187.444 17.9851 188.054 16.2424 188.424 13.9514H191.394L191.404 13.9612ZM182.834 26.8063H185.614L184.904 31.2022H200.154L199.764 33.6009H183.404C182.854 33.6009 182.464 33.4736 182.234 33.2093C181.994 32.9254 181.924 32.4848 182.024 31.8582L182.844 26.8063H182.834ZM199.974 13.9612H202.753L200.594 27.3252H197.814L199.974 13.9612Z" fill="#727171"/>
<path d="M214.653 13.9612C214.293 16.2032 214.353 17.9459 214.843 19.1795C215.443 20.6187 216.653 21.4509 218.473 21.6859L218.053 24.2804C216.723 24.2021 215.573 23.8692 214.583 23.272C213.463 22.5866 212.673 21.6076 212.193 20.3446C211.273 21.6076 210.103 22.5866 208.663 23.2915C207.453 23.8888 206.233 24.2118 205.013 24.2706L205.433 21.6957C207.373 21.4313 208.843 20.5894 209.853 19.1697C210.693 17.9851 211.303 16.2424 211.673 13.9514H214.643L214.653 13.9612ZM206.083 26.8063H208.863L208.153 31.2022H223.403L223.013 33.6009H206.653C206.103 33.6009 205.713 33.4736 205.483 33.2093C205.243 32.9254 205.173 32.4848 205.273 31.8582L206.093 26.8063H206.083ZM224.923 20.6187L223.843 27.335H221.063L223.223 13.9612H225.993L225.313 18.1711H228.133L227.733 20.6187H224.913H224.923Z" fill="#727171"/>
<path d="M229.613 25.093H232.343L232.033 26.9923H244.422L244.732 25.093H247.512L246.412 31.8876C246.312 32.524 246.082 32.9841 245.742 33.2485C245.442 33.5128 245.012 33.6499 244.462 33.6499H229.923C229.363 33.6499 228.973 33.5226 228.743 33.2485C228.503 32.9645 228.433 32.5142 228.533 31.8876L229.633 25.093H229.613ZM237.553 22.4691C236.373 23.1838 235.133 23.5363 233.823 23.5363C232.283 23.5363 231.013 23.0663 230.023 22.1069C228.973 21.1083 228.573 19.8355 228.823 18.2984C229.073 16.7417 229.883 15.4591 231.253 14.4703C232.543 13.55 233.963 13.0898 235.513 13.0898C236.853 13.0898 237.993 13.4521 238.943 14.1668C239.933 14.9305 240.473 15.9487 240.553 17.2116H245.942L246.472 13.9612H249.292L247.782 23.2817H244.962L245.552 19.6103H240.133C239.643 20.795 238.773 21.7446 237.543 22.4691H237.553ZM244.052 29.2441H231.663L231.333 31.2512H243.722L244.052 29.2441ZM232.923 16.3305C232.203 16.8592 231.773 17.5151 231.653 18.2886C231.523 19.062 231.733 19.7278 232.283 20.2761C232.803 20.795 233.453 21.0495 234.233 21.0495C235.013 21.0495 235.773 20.795 236.463 20.2761C237.203 19.7376 237.643 19.0718 237.763 18.2886C237.883 17.5151 237.663 16.8592 237.103 16.3305C236.583 15.8312 235.913 15.5864 235.123 15.5864C234.333 15.5864 233.613 15.8312 232.923 16.3305Z" fill="#727171"/>
<path d="M252.582 26.8063H255.362L254.652 31.2022H269.902L269.512 33.6009H253.142C252.592 33.6009 252.202 33.4736 251.972 33.2093C251.732 32.9254 251.662 32.4848 251.762 31.8582L252.582 26.8063ZM265.522 16.3501H260.882C260.632 17.9753 260.762 19.2187 261.252 20.0998C261.842 21.1083 262.982 21.7251 264.692 21.9209L264.262 24.5643C263.342 24.5643 262.342 24.3195 261.272 23.8202C259.942 23.1838 259.052 22.3419 258.622 21.3139C257.802 22.3419 256.622 23.1741 255.092 23.7909C253.882 24.2902 252.812 24.5447 251.882 24.5643L252.312 21.9209C254.102 21.7153 255.442 21.1083 256.332 20.0998C257.072 19.2579 257.592 18.0047 257.892 16.3501H253.352L253.742 13.9514H265.902L265.512 16.3501H265.522ZM269.722 13.9612H272.491L270.332 27.3252H267.552L269.712 13.9612H269.722Z" fill="#727171"/>
<path d="M274.571 24.3979L274.961 21.9992H280.291C279.991 21.6076 279.781 21.1866 279.681 20.7264C279.561 20.2565 279.551 19.7572 279.631 19.2481C279.711 18.7487 279.881 18.269 280.131 17.8089C280.371 17.3879 280.691 16.9767 281.071 16.585H276.571L276.931 14.3822H284.781L285.081 12.5122H288.101L287.801 14.3822H295.721L295.361 16.585H290.631C290.921 16.9473 291.131 17.3389 291.251 17.7599C291.381 18.2298 291.401 18.7292 291.321 19.2481C291.231 19.7767 291.031 20.2859 290.721 20.7558C290.441 21.2062 290.071 21.6271 289.611 21.9992H295.171L294.781 24.3979H289.741C290.291 24.9265 290.681 25.5336 290.911 26.2091C291.161 26.9532 291.221 27.756 291.081 28.6078C290.781 30.4582 289.791 31.9855 288.121 33.1897C286.551 34.3254 284.831 34.8933 282.971 34.8933C281.111 34.8933 279.441 34.3254 278.221 33.1897C276.921 31.9855 276.421 30.4582 276.711 28.6078C276.851 27.7756 277.161 26.9923 277.651 26.258C278.121 25.5727 278.721 24.9559 279.471 24.3979H274.551H274.571ZM281.421 25.6608C280.401 26.4539 279.801 27.4035 279.621 28.4903C279.441 29.5868 279.741 30.5169 280.501 31.3001C281.241 32.0638 282.171 32.4456 283.301 32.4456C284.431 32.4456 285.481 32.0638 286.451 31.3001C287.471 30.5169 288.071 29.5868 288.241 28.4903C288.421 27.3937 288.121 26.4539 287.361 25.6608C286.641 24.9167 285.711 24.5349 284.581 24.5349C283.451 24.5349 282.391 24.907 281.411 25.6608H281.421ZM283.621 17.3977C282.961 17.897 282.581 18.5236 282.451 19.2676C282.331 20.0019 282.521 20.6285 283.011 21.1376C283.521 21.6663 284.201 21.9307 285.061 21.9307C285.921 21.9307 286.651 21.6663 287.331 21.1376C287.991 20.6089 288.381 19.9823 288.491 19.2676C288.611 18.5138 288.421 17.897 287.931 17.3977C287.431 16.9179 286.761 16.6732 285.911 16.6732C285.061 16.6732 284.271 16.9179 283.611 17.3977H283.621Z" fill="#727171"/>
<path d="M304.53 23.781H297.951L298.341 21.3824H301.141C300.671 20.9614 300.321 20.4718 300.111 19.9334C299.901 19.3362 299.851 18.6998 299.971 18.0144C300.211 16.5165 301.011 15.2927 302.381 14.3332C303.651 13.4423 305.08 13.0017 306.65 13.0017C308.22 13.0017 309.37 13.4423 310.32 14.3332C311.35 15.3025 311.75 16.5263 311.51 18.0144C311.4 18.6998 311.14 19.3459 310.72 19.9334C310.33 20.4816 309.84 20.9614 309.25 21.3824H312.49L312.1 23.781H307.3L306.55 28.3923H303.771L304.52 23.781H304.53ZM299.201 26.1014H301.921L301.091 31.2022H316.39L316 33.6009H299.641C299.091 33.6009 298.701 33.4736 298.471 33.2093C298.231 32.9253 298.161 32.475 298.271 31.8386L299.201 26.1112V26.1014ZM303.85 15.9976C303.171 16.5557 302.771 17.2214 302.651 17.9851C302.531 18.7194 302.721 19.3753 303.211 19.953C303.741 20.5306 304.42 20.8145 305.26 20.8145C306.1 20.8145 306.82 20.5306 307.52 19.953C308.22 19.3753 308.62 18.7194 308.74 17.9851C308.86 17.2214 308.67 16.5557 308.16 15.9976C307.65 15.4395 306.99 15.1556 306.18 15.1556C305.37 15.1556 304.56 15.4395 303.861 15.9976H303.85ZM314.37 25.4063L316.22 13.9612H318.99L316.49 29.4399H313.71L313.98 27.756H309.22L309.6 25.4063H314.36H314.37Z" fill="#727171"/>
</g>
<defs>
<linearGradient id="paint0_linear_170_3000" x1="50.9983" y1="24.0355" x2="94.4018" y2="28.0378" gradientUnits="userSpaceOnUse">
<stop offset="0.15" stop-color="#004187"/>
<stop offset="0.52" stop-color="#0075C2"/>
<stop offset="0.87" stop-color="#004187"/>
</linearGradient>
<clipPath id="clip0_170_3000">
<rect width="319" height="50" fill="white"/>
</clipPath>
</defs>
</svg>
