<svg width="24" height="24" viewBox="0 0 24 24" fill="none" xmlns="http://www.w3.org/2000/svg">
<path d="M5.40039 10.6001C6.17341 10.6003 6.7998 11.2274 6.7998 12.0005C6.79959 12.7734 6.17328 13.3997 5.40039 13.3999C4.62732 13.3999 4.00021 12.7735 4 12.0005C4 11.2273 4.62719 10.6001 5.40039 10.6001ZM12.002 10.6001C12.775 10.6003 13.4014 11.2274 13.4014 12.0005C13.4012 12.7734 12.7748 13.3997 12.002 13.3999C11.2289 13.3999 10.6018 12.7735 10.6016 12.0005C10.6016 11.2273 11.2288 10.6001 12.002 10.6001ZM18.5996 10.6001C19.3726 10.6003 19.999 11.2274 19.999 12.0005C19.9988 12.7734 19.3725 13.3997 18.5996 13.3999C17.8265 13.3999 17.1994 12.7735 17.1992 12.0005C17.1992 11.2273 17.8264 10.6001 18.5996 10.6001Z" fill="#D9D9D9"/>
</svg>
