<svg width="20" height="20" viewBox="0 0 20 20" fill="none" xmlns="http://www.w3.org/2000/svg">
<path d="M15.3369 13.7825C14.9809 13.4416 14.6345 13.0908 14.298 12.7307C14.0153 12.4434 13.845 12.2344 13.845 12.2344L11.717 11.2183C12.569 10.2521 13.0392 9.00822 13.0394 7.72002C13.0394 4.78718 10.653 2.40002 7.71941 2.40002C4.78581 2.40002 2.39941 4.78718 2.39941 7.72002C2.39941 10.6529 4.78581 13.04 7.71941 13.04C9.05929 13.04 10.2806 12.5384 11.2177 11.7184L12.2338 13.8464C12.2338 13.8464 12.4428 14.0166 12.7301 14.2993C13.0242 14.5752 13.4111 14.9484 13.7819 15.3383L14.814 16.3962L15.2731 16.8871L16.885 15.2752L16.3941 14.8161C16.106 14.5334 15.7215 14.158 15.3369 13.7825ZM7.71941 11.52C5.62409 11.52 3.91941 9.81534 3.91941 7.72002C3.91941 5.6247 5.62409 3.92002 7.71941 3.92002C9.81473 3.92002 11.5194 5.6247 11.5194 7.72002C11.5194 9.81534 9.81473 11.52 7.71941 11.52Z" fill="white"/>
</svg>
