<svg width="31" height="31" viewBox="0 0 31 31" fill="none" xmlns="http://www.w3.org/2000/svg">
<path fill-rule="evenodd" clip-rule="evenodd" d="M8.35132 7.43238L9.34318 7.88215C9.68076 8.03419 9.82865 8.4317 9.67433 8.76269L2.67992 23.7555C2.5256 24.0881 2.1221 24.2338 1.78452 24.0818L0.792668 23.632C0.455084 23.4799 0.30719 23.0824 0.461514 22.7499L7.45753 7.75863C7.61186 7.42605 8.01535 7.28035 8.35293 7.43238H8.35132ZM14.8828 20.1146H15.947C16.2572 20.1146 16.5128 20.3648 16.5128 20.6721V23.206C16.5128 23.5116 16.2588 23.7634 15.947 23.7634H14.8828C14.5725 23.7634 14.3169 23.5132 14.3169 23.206V20.6721C14.3169 20.3664 14.5709 20.1146 14.8828 20.1146ZM14.8956 14.6239H15.9598C16.2701 14.6239 16.5257 14.8742 16.5257 15.1814V17.7153C16.5257 18.021 16.2717 18.2728 15.9598 18.2728H14.8956C14.5854 18.2728 14.3298 18.0225 14.3298 17.7153V15.1814C14.3298 14.8757 14.5838 14.6239 14.8956 14.6239ZM14.8908 9.22671H15.955C16.2652 9.22671 16.5208 9.47693 16.5208 9.78417V12.3181C16.5208 12.6237 16.2669 12.8755 15.955 12.8755H14.8908C14.5805 12.8755 14.3249 12.6253 14.3249 12.3181V9.78417C14.3249 9.47852 14.5789 9.22671 14.8908 9.22671ZM22.4478 7.06022L21.456 7.50999C21.1184 7.66202 20.9705 8.05953 21.1248 8.3921L28.1209 23.3849C28.2752 23.7175 28.6787 23.8632 29.0163 23.7112L30.0081 23.2614C30.3457 23.1094 30.4936 22.7119 30.3393 22.3793L23.3416 7.38646C23.1873 7.05388 22.7838 6.90818 22.4462 7.06022H22.4478Z" fill="url(#paint0_linear_173_277)"/>
<defs>
<linearGradient id="paint0_linear_173_277" x1="15.4004" y1="7" x2="15.4004" y2="24.142" gradientUnits="userSpaceOnUse">
<stop stop-color="#1C51A2"/>
<stop offset="1" stop-color="#0A1E3C"/>
</linearGradient>
</defs>
</svg>
