<svg width="22" height="30" viewBox="0 0 22 30" fill="none" xmlns="http://www.w3.org/2000/svg">
<path d="M9.50055 0H12.3863C13.7181 0 14.9273 0.647283 15.8032 1.68913C16.6791 2.73098 17.2249 4.17065 17.2249 5.7538V8.82554H17.2232C17.2281 9.52011 16.9144 9.88696 16.5794 10.2783C16.4421 10.438 16.3 10.606 16.215 10.7821C16.0254 11.1783 15.9274 11.4995 15.8784 11.8565C15.8261 12.2332 15.8228 12.6946 15.8228 13.3337C15.8228 13.4576 15.8195 13.6614 15.8179 14.1652C15.813 14.956 15.8081 15.9489 15.8228 16.5864C15.8261 16.7038 16.0761 16.787 16.2951 16.8587C16.7526 17.0087 17.1611 17.1424 17.2199 17.7766L17.2232 17.819V24.2462C17.2232 25.8293 16.6791 27.2674 15.8016 28.3109C14.9241 29.3527 13.7148 30 12.3847 30H9.49891C8.16714 30 6.95792 29.3527 6.08205 28.3109C5.20455 27.2674 4.6604 25.8293 4.6604 24.2462V17.819L4.66367 17.7766C4.7225 17.1424 5.13102 17.0087 5.58856 16.8587C5.80753 16.787 6.05754 16.7038 6.06081 16.5864C6.07551 15.9489 6.07061 14.9543 6.06571 14.1652C6.06244 13.6614 6.06081 13.4576 6.06081 13.3337C6.06081 12.6946 6.05754 12.2332 6.00525 11.8565C5.95623 11.4978 5.85818 11.1783 5.66863 10.7821C5.58366 10.6043 5.44149 10.438 5.30423 10.2783C4.96924 9.88696 4.65713 9.52011 4.6604 8.82554H4.65877V5.7538C4.65877 4.17065 5.20291 2.73261 6.08042 1.68913C6.95792 0.645652 8.16877 0 9.50055 0ZM16.6039 11.1179L20.743 14.8728C21.2757 15.3554 21.1434 15.2478 21.8738 15.1793C21.8215 14.506 21.9294 14.612 21.4359 14.1652L17.2886 10.4038L16.7297 10.4837L16.6023 11.1179H16.6039ZM5.27155 11.1196L1.13078 14.8745C0.598074 15.3571 0.730434 15.2495 0 15.181C0.0522906 14.5076 -0.0555587 14.6136 0.437934 14.1668L4.58523 10.4054L5.14409 10.4853L5.27155 11.1196ZM8.08543 18.9766C7.85993 18.9766 7.77169 19.0272 7.69816 19.4886L7.44651 22.0109C7.19813 23.3804 14.7574 23.3804 14.5074 22.0109L14.2149 19.4413C14.1413 19.0402 14.0596 18.9359 13.8374 18.9766C13.4142 19.0549 11.8373 19.1283 10.8732 19.125C9.80776 19.1217 8.82077 18.9766 8.08543 18.9766ZM8.35342 12.8739C8.12629 12.887 7.91712 12.931 7.84359 12.5299L7.38441 10.0125C7.1344 8.64293 14.7231 8.64293 14.4731 10.0125L14.0139 12.5299C13.9403 12.931 13.8178 12.8902 13.5907 12.8739C13.0432 12.8364 11.785 12.781 10.8552 12.7777C10.0153 12.7745 9.05608 12.8332 8.35342 12.8739ZM9.50055 1.18043C8.4433 1.18043 7.48246 1.69565 6.78471 2.52391C6.08695 3.3538 5.65392 4.49674 5.65392 5.7538V8.83043C5.65065 9.02935 5.81896 9.22663 6.00035 9.43859C6.185 9.65543 6.37782 9.88043 6.53142 10.2C6.78471 10.7266 6.91543 11.1652 6.98406 11.6658C7.05106 12.1484 7.05433 12.6473 7.05433 13.3321C7.05433 13.8913 7.05433 14.0168 7.05433 14.1587C7.05923 14.9625 7.06413 15.9717 7.04943 16.6174C7.02655 17.6054 6.39906 17.8109 5.85165 17.9918C5.7438 18.0277 5.67353 17.7832 5.65229 17.8777V24.2429C5.65229 25.5 6.08532 26.6429 6.78307 27.4728C7.48082 28.3027 8.44166 28.8163 9.49891 28.8163H12.3847C13.442 28.8163 14.4028 28.3011 15.1005 27.4728C15.7983 26.6429 16.2313 25.5 16.2313 24.2429V17.8777C16.2101 17.7832 16.1382 18.0261 16.032 17.9918C15.4846 17.8125 14.8571 17.6054 14.8342 16.6174C14.8195 15.9717 14.8244 14.9625 14.8293 14.1587C14.8293 14.0168 14.8293 13.8897 14.8293 13.3321C14.8293 12.6473 14.8342 12.15 14.8996 11.6658C14.9682 11.1652 15.0989 10.7266 15.3522 10.2C15.5058 9.87881 15.6986 9.6538 15.8833 9.43859C16.0647 9.22663 16.233 9.02935 16.2313 8.83043V8.82554L16.2297 5.7538C16.2297 4.49674 15.7967 3.3538 15.0989 2.52391C14.4012 1.69402 13.4403 1.18043 12.3831 1.18043H9.49728H9.50055Z" fill="url(#paint0_linear_184_5746)"/>
<defs>
<linearGradient id="paint0_linear_184_5746" x1="10.9369" y1="0" x2="10.9369" y2="30" gradientUnits="userSpaceOnUse">
<stop stop-color="#1C51A2"/>
<stop offset="1" stop-color="#0A1E3C"/>
</linearGradient>
</defs>
</svg>
