<svg width="31" height="30" viewBox="0 0 31 30" fill="none" xmlns="http://www.w3.org/2000/svg">
<path fill-rule="evenodd" clip-rule="evenodd" d="M8.95269 13.8825H14.4429V7.37198C14.4429 6.83775 14.881 6.39965 15.4152 6.39965C15.9494 6.39965 16.3875 6.83775 16.3875 7.37198V13.8825H22.8981V7.37198C22.8981 6.83775 23.3344 6.39965 23.8704 6.39965C24.4047 6.39965 24.8428 6.83775 24.8428 7.37198V22.3359C24.8428 22.8702 24.4065 23.3083 23.8704 23.3083C23.3362 23.3083 22.8981 22.8702 22.8981 22.3359V15.8254H16.3875V22.3359C16.3875 22.8702 15.9513 23.3083 15.4152 23.3083C14.881 23.3083 14.4429 22.8702 14.4429 22.3359V15.8254H8.95269V22.0919C8.95269 22.6262 8.51643 23.0643 7.98036 23.0643C7.44613 23.0643 7.00802 22.6262 7.00802 22.0919V15.1562C6.9766 15.0601 6.95996 14.9584 6.95996 14.853C6.95996 14.7477 6.9766 14.646 7.00802 14.5499V7.12797C7.00802 6.59374 7.44428 6.15564 7.98036 6.15564C8.51459 6.15564 8.95269 6.59374 8.95269 7.12797V13.8807V13.8825Z" fill="url(#paint0_linear_184_5748)"/>
<path d="M15.8749 0C20.0175 0 23.7664 1.67848 26.4819 4.39399C29.1955 7.10765 30.8759 10.8583 30.8759 15.0009C30.8759 19.1435 29.1974 22.8924 26.4819 25.6079C23.7664 28.3234 20.0175 30.0019 15.8749 30.0019C11.7324 30.0019 7.98352 28.3234 5.26801 25.6079C2.5525 22.8924 0.874023 19.1435 0.874023 15.0009C0.874023 10.8583 2.5525 7.10765 5.26801 4.39399C7.98167 1.67848 11.7324 0 15.8749 0ZM25.2692 5.60663C22.8643 3.20168 19.5443 1.71545 15.8749 1.71545C12.2056 1.71545 8.88561 3.20168 6.48065 5.60663C4.07755 8.01159 2.58947 11.3316 2.58947 15.0009C2.58947 18.6703 4.0757 21.9903 6.48065 24.3952C8.88561 26.8002 12.2056 28.2864 15.8749 28.2864C19.5443 28.2864 22.8643 26.8002 25.2692 24.3952C27.6742 21.9903 29.1604 18.6703 29.1604 15.0009C29.1604 11.3316 27.6742 8.01159 25.2692 5.60663Z" fill="url(#paint1_linear_184_5748)"/>
<defs>
<linearGradient id="paint0_linear_184_5748" x1="15.9014" y1="6.15564" x2="15.9014" y2="23.3083" gradientUnits="userSpaceOnUse">
<stop stop-color="#1C51A2"/>
<stop offset="1" stop-color="#0A1E3C"/>
</linearGradient>
<linearGradient id="paint1_linear_184_5748" x1="15.8749" y1="0" x2="15.8749" y2="30.0019" gradientUnits="userSpaceOnUse">
<stop stop-color="#1C51A2"/>
<stop offset="1" stop-color="#0A1E3C"/>
</linearGradient>
</defs>
</svg>
