<svg width="30" height="31" viewBox="0 0 30 31" fill="none" xmlns="http://www.w3.org/2000/svg">
<path fill-rule="evenodd" clip-rule="evenodd" d="M6.53253 0.5H9.49165C10.1139 0.5 10.6238 1.00577 10.6238 1.62299V7.8397C10.6238 8.45691 10.1139 8.96268 9.49165 8.96268H6.53253C5.91029 8.96268 5.40039 8.45691 5.40039 7.8397V1.62299C5.40039 1.00577 5.91029 0.5 6.53253 0.5ZM10.6255 26.9116V25.4869H14.6822V5.80975H10.6238V4.38502H20.177V5.80975H16.1186V25.4869H20.1753V23.1586C20.1753 22.5414 20.6852 22.0356 21.3074 22.0356H24.2665C24.8888 22.0356 25.3987 22.5414 25.3987 23.1586V29.3753C25.3987 29.9925 24.8888 30.4983 24.2665 30.4983H21.3074C20.6852 30.4983 20.1753 29.9925 20.1753 29.3753V26.9099H10.6255V26.9116ZM24.2683 0.5H21.3091C20.6869 0.5 20.177 1.00577 20.177 1.62299V7.8397C20.177 8.45691 20.6869 8.96268 21.3091 8.96268H24.2683C24.8905 8.96268 25.4004 8.45691 25.4004 7.8397V1.62299C25.4004 1.00577 24.8905 0.5 24.2683 0.5ZM6.53426 22.0373H9.49338C10.1156 22.0373 10.6255 22.5431 10.6255 23.1603V29.377C10.6255 29.9942 10.1156 30.5 9.49338 30.5H6.53426C5.91201 30.5 5.40212 29.9942 5.40212 29.377V23.1603C5.40212 22.5431 5.91201 22.0373 6.53426 22.0373Z" fill="url(#paint0_linear_184_5738)"/>
<defs>
<linearGradient id="paint0_linear_184_5738" x1="15.4004" y1="0.5" x2="15.4004" y2="30.5" gradientUnits="userSpaceOnUse">
<stop stop-color="#1C51A2"/>
<stop offset="1" stop-color="#0A1E3C"/>
</linearGradient>
</defs>
</svg>
