<svg width="31" height="31" viewBox="0 0 31 31" fill="none" xmlns="http://www.w3.org/2000/svg">
<path fill-rule="evenodd" clip-rule="evenodd" d="M16.6256 14.5627C17.5662 14.477 18.4788 15.0437 18.7901 15.9777C19.1542 17.0698 18.5644 18.2493 17.4739 18.615C16.3818 18.979 15.2024 18.3893 14.8383 17.2988C14.7411 17.0089 14.7115 16.714 14.7411 16.429L7.34326 6.68216L16.6273 14.5643L16.6256 14.5627Z" fill="url(#paint0_linear_184_5754)"/>
<path d="M15.8771 0.5C20.02 0.5 23.7692 2.17856 26.4839 4.89326C29.1986 7.60795 30.8771 11.3588 30.8771 15.5C30.8771 19.6412 29.1986 23.392 26.4839 26.1067C23.7692 28.8214 20.0184 30.5 15.8771 30.5C11.7359 30.5 7.98509 28.8214 5.27039 26.1067C2.55405 23.3937 0.875488 19.6429 0.875488 15.5016C0.875488 11.3604 2.55405 7.60795 5.26875 4.89326C7.98344 2.17856 11.7343 0.5 15.8771 0.5ZM25.2715 6.10729C22.8681 3.70393 19.5456 2.21645 15.8771 2.21645C12.2087 2.21645 8.88614 3.70393 6.48278 6.10729C4.07942 8.51065 2.59194 11.8332 2.59194 15.5016C2.59194 19.1701 4.07942 22.4926 6.48278 24.896C8.88614 27.2994 12.2087 28.7868 15.8771 28.7868C19.5456 28.7868 22.8665 27.2994 25.2715 24.896C27.6749 22.4926 29.1623 19.1701 29.1623 15.5016C29.1623 11.8332 27.6749 8.5123 25.2715 6.10729Z" fill="url(#paint1_linear_184_5754)"/>
<defs>
<linearGradient id="paint0_linear_184_5754" x1="13.1205" y1="6.68216" x2="13.1205" y2="18.7226" gradientUnits="userSpaceOnUse">
<stop stop-color="#1C51A2"/>
<stop offset="1" stop-color="#0A1E3C"/>
</linearGradient>
<linearGradient id="paint1_linear_184_5754" x1="15.8763" y1="0.5" x2="15.8763" y2="30.5" gradientUnits="userSpaceOnUse">
<stop stop-color="#1C51A2"/>
<stop offset="1" stop-color="#0A1E3C"/>
</linearGradient>
</defs>
</svg>
