<svg width="31" height="30" viewBox="0 0 31 30" fill="none" xmlns="http://www.w3.org/2000/svg">
<g clip-path="url(#clip0_184_5752)">
<path fill-rule="evenodd" clip-rule="evenodd" d="M0.875488 28.9026V24.9173C0.875488 24.3126 1.38307 23.8199 2.00618 23.8199H4.97117V0.975085C4.97117 0.438279 5.42275 0 5.97584 0H21.8895C22.4426 0 22.8942 0.438279 22.8942 0.975085V4.9128H25.2395L25.5021 5.3239C26.0622 6.21065 28.3551 9.9513 29.7448 13.4949C30.3644 15.0747 30.8125 16.6308 30.8685 17.9253C30.935 19.4711 30.4624 20.6738 29.1497 21.2242C28.8521 21.3499 28.5091 21.4315 28.1205 21.4689C26.0342 21.6659 24.3014 20.4258 22.8942 19.0193V23.8233H26.0447C26.6678 23.8233 27.1754 24.316 27.1754 24.9207V28.906C27.1754 29.5108 26.6678 30.0034 26.0447 30.0034H2.00618C1.38307 30.0034 0.875488 29.5108 0.875488 28.906V28.9026ZM22.8977 6.63873V16.4168C24.2384 17.9728 26.0377 19.9298 27.956 19.7497C28.145 19.7327 28.3096 19.692 28.4496 19.6342C28.9537 19.4236 29.1287 18.8154 29.0937 17.9932C29.0482 16.9162 28.6421 15.5402 28.082 14.1132C26.8988 11.1031 25.0365 7.93318 24.2419 6.64213H22.8977V6.63873ZM10.8276 2.52095H17.0377C17.8638 2.52095 18.5394 3.17667 18.5394 3.97848V11.3069C18.5394 12.1087 17.8638 12.7644 17.0377 12.7644H10.8276C10.0015 12.7644 9.3259 12.1087 9.3259 11.3069V3.97848C9.3259 3.17667 10.0015 2.52095 10.8276 2.52095Z" fill="url(#paint0_linear_184_5752)"/>
</g>
<defs>
<linearGradient id="paint0_linear_184_5752" x1="15.875" y1="0" x2="15.875" y2="30.0034" gradientUnits="userSpaceOnUse">
<stop stop-color="#1C51A2"/>
<stop offset="1" stop-color="#0A1E3C"/>
</linearGradient>
<clipPath id="clip0_184_5752">
<rect width="30" height="30" fill="white" transform="translate(0.875488)"/>
</clipPath>
</defs>
</svg>
