<svg width="16" height="16" viewBox="0 0 16 16" fill="none" xmlns="http://www.w3.org/2000/svg">
<path d="M11.4998 2.66669L11.4332 2.67135C11.3132 2.68749 11.2032 2.74658 11.1235 2.83767C11.0438 2.92876 10.9999 3.04566 10.9998 3.16669V11.628L8.85315 9.48269L8.79715 9.43469C8.69569 9.35926 8.56941 9.32508 8.44376 9.33902C8.3181 9.35296 8.20238 9.41398 8.11991 9.50981C8.03744 9.60563 7.99433 9.72914 7.99926 9.85548C8.00419 9.98181 8.0568 10.1016 8.14649 10.1907L11.1492 13.1907L11.2052 13.2387C11.3015 13.3098 11.4201 13.344 11.5395 13.3351C11.6589 13.3262 11.7712 13.2747 11.8558 13.19L14.8538 10.19L14.9018 10.134C14.9731 10.0377 15.0075 9.91887 14.9985 9.79931C14.9896 9.67975 14.938 9.56738 14.8532 9.48269L14.7972 9.43469C14.7008 9.36336 14.582 9.32904 14.4624 9.33797C14.3429 9.34691 14.2305 9.3985 14.1458 9.48335L11.9998 11.6307V3.16669L11.9958 3.09869C11.9794 2.97898 11.9202 2.86928 11.8291 2.78987C11.7381 2.71045 11.6206 2.66669 11.4998 2.66669ZM4.14316 2.81335L1.14649 5.81002L1.09782 5.86602C1.02668 5.96233 0.992462 6.08098 1.00139 6.20039C1.01032 6.31979 1.06181 6.43203 1.14649 6.51669L1.20249 6.56535C1.2988 6.6365 1.41745 6.67071 1.53685 6.66178C1.65626 6.65285 1.7685 6.60136 1.85315 6.51669L3.99782 4.37135V12.8367L4.00316 12.9047C4.01959 13.0244 4.07881 13.1341 4.16987 13.2135C4.26093 13.2929 4.37766 13.3367 4.49849 13.3367L4.56582 13.332C4.68565 13.3157 4.79551 13.2566 4.87506 13.1655C4.95461 13.0744 4.99846 12.9576 4.99849 12.8367L4.99782 4.37269L7.14649 6.51735L7.20249 6.56535C7.30403 6.63983 7.42993 6.67325 7.55504 6.65894C7.68014 6.64463 7.79525 6.58364 7.87734 6.48815C7.95944 6.39267 8.00248 6.26972 7.99787 6.14389C7.99327 6.01805 7.94135 5.89858 7.85249 5.80935L4.84982 2.81335L4.79316 2.76535C4.69684 2.69421 4.5782 2.65999 4.45879 2.66893C4.33938 2.67786 4.22715 2.72934 4.14249 2.81402" fill="#111111"/>
</svg>
