<svg width="30" height="31" viewBox="0 0 30 31" fill="none" xmlns="http://www.w3.org/2000/svg">
<path fill-rule="evenodd" clip-rule="evenodd" d="M1.59637 11.4897L2.10312 12.0737C1.86819 12.4855 1.54588 13.3828 1.46628 13.8352C1.16339 13.8488 1.04495 13.8352 0.722646 13.8468C0.518778 15.3242 0.5945 15.7032 0.759536 16.7009L1.50899 16.7183L1.53035 16.7841L1.85072 17.7548L2.14001 18.3523L1.68956 19.0213C2.25457 19.9572 2.82734 20.5006 3.56126 21.0671C3.56126 21.0671 3.94182 20.8622 4.27771 20.6862C4.27771 20.6862 4.61167 20.9318 5.19027 21.1948C5.46597 21.3205 5.81352 21.4616 6.17854 21.5564C6.1766 21.6356 6.17466 21.6975 6.17271 21.7478V21.7536V21.7942V21.7981V21.8058V21.8097V21.8174V21.8271V21.8367V21.8464V21.8561V21.8657V21.8735V21.8812V21.8889V21.8967V21.9044V21.9122V21.9199V21.9276V21.9354V21.9431V21.9508V21.9586V21.9624V21.9663V21.9702V21.974V21.9779V21.9818V21.9856V22.0011V22.003V22.0088V22.0166V22.0262V22.0359V22.0456V22.0552V22.0649V22.0746V22.1171V22.1403C6.17271 22.1751 6.17271 22.2138 6.17271 22.2563V22.3028C7.92598 22.7572 8.82494 22.4826 9.61905 22.3472C9.68701 21.9412 9.66953 21.7555 9.70448 21.5815C9.70448 21.5815 10.186 21.4519 10.6539 21.2489C11.0869 21.0613 11.5102 20.7984 11.5102 20.7984C11.9509 20.9995 11.8441 20.984 12.248 21.1793C12.248 21.1793 13.2751 20.4696 14.141 19.2379L13.7139 18.5534C13.8634 18.447 14.5352 16.8266 14.4517 16.7377C14.9274 16.6313 14.9759 16.6448 15.2303 16.5791C15.4225 15.4963 15.3429 14.6106 15.2497 13.7269L14.4148 13.4775C14.2051 12.7446 14.0226 12.3096 13.6129 11.6502L14.0401 10.9831C13.4984 10.1999 12.8382 9.60244 12.0616 9.05521C12.0616 9.05521 11.8422 9.14609 11.2655 9.41681C11.2655 9.41681 10.7432 9.10742 9.98213 8.86571C9.73167 8.78643 9.45596 8.71295 9.16472 8.66074L9.16084 8.64527L9.15695 8.6298L9.15307 8.61433L9.14919 8.6008L9.1453 8.58726L9.14142 8.57373L9.13754 8.56019L9.13365 8.54666L9.12977 8.53312L9.12589 8.51958L9.122 8.50798L9.11812 8.49638L9.11424 8.48478L9.11035 8.47318L9.10647 8.46157L9.10259 8.44997L9.0987 8.43837L9.09482 8.42677L9.09094 8.41517L9.08706 8.40356L9.08317 8.39196L9.07735 8.37263L9.07346 8.36296L9.06958 8.35136L9.0657 8.34169L9.06181 8.33202L9.05793 8.32235L9.05405 8.31268L9.05016 8.30301L9.04628 8.29335L9.0424 8.28368L9.03852 8.27401L9.03463 8.26434L9.03075 8.25467L9.02687 8.245L9.02298 8.23534L9.0191 8.22567L9.01521 8.216L9.01133 8.20633L9.00745 8.19473L9.00357 8.18313C9.00357 8.18313 8.99774 8.16766 8.9958 8.16186L8.99192 8.15025L8.98803 8.13865L8.98415 8.12705C8.98415 8.12705 8.97833 8.11158 8.97638 8.10385L8.9725 8.09224L8.96862 8.08064L8.96473 8.06904L8.95891 8.0555L8.95308 8.04197L8.94726 8.02843L8.94143 8.0149L8.93561 8.00136L8.92979 7.98783L8.92396 7.97429L8.91814 7.96075L8.91231 7.94529L8.90649 7.92982L8.90066 7.91435L8.89484 7.89888C7.69687 7.77319 6.84645 7.90661 6.11058 8.08064C5.96885 8.52539 5.91837 8.69555 5.83682 8.92565C5.83682 8.92565 5.5048 9.03007 5.15143 9.1925C4.83495 9.33753 4.50294 9.53283 4.3379 9.63144C3.98842 9.48642 3.90104 9.43808 3.56903 9.29885C3.56903 9.29885 2.35747 10.1632 1.59442 11.5013L1.59637 11.4897ZM8.1512 11.3988C10.2947 11.3988 12.0325 13.1294 12.0325 15.2642C12.0325 17.399 10.2947 19.1296 8.1512 19.1296C6.00768 19.1296 4.26995 17.399 4.26995 15.2642C4.26995 13.1294 6.00768 11.3988 8.1512 11.3988Z" fill="url(#paint0_linear_184_5740)"/>
<path fill-rule="evenodd" clip-rule="evenodd" d="M14.1452 4.148L14.652 4.73197C14.417 5.14384 14.0947 6.04106 14.0151 6.49354C13.7103 6.50707 13.5938 6.49354 13.2715 6.50514C13.0676 7.98246 13.1433 8.36146 13.3084 9.35923L14.0559 9.37663L14.0772 9.44238L14.3976 10.4131L14.6869 11.0106L14.2364 11.6796C14.8015 12.6155 15.3742 13.1589 16.1082 13.7254C16.1082 13.7254 16.4887 13.5205 16.8246 13.3445C16.8246 13.3445 17.1586 13.5901 17.7372 13.8531C18.0129 13.9788 18.3604 14.1199 18.7254 14.2147C18.7235 14.2939 18.7215 14.3558 18.7196 14.4061V14.4119V14.4525V14.4564V14.4641V14.468V14.4757V14.4854V14.495V14.5047V14.5144V14.5241V14.5318V14.5395V14.5473V14.555V14.5608V14.5666V14.5724V14.5782V14.5801V14.5859V14.5879V14.5937V14.5956V14.5995V14.6033V14.6072V14.6111V14.6149V14.6188V14.6227V14.6265V14.6304V14.6343V14.6497V14.6517V14.6575V14.6652V14.6749V14.6845V14.6942V14.7039V14.7136V14.7232V14.7658V14.7928C18.7196 14.8257 18.7196 14.8624 18.7196 14.9069V14.9533C20.4729 15.4077 21.3718 15.1332 22.1659 14.9978C22.2339 14.5937 22.2164 14.408 22.2514 14.2321C22.2514 14.2321 22.7329 14.1025 23.2008 13.8995C23.6338 13.7119 24.0571 13.4489 24.0571 13.4489C24.4978 13.65 24.391 13.6346 24.7949 13.8299C24.7949 13.8299 25.822 13.1202 26.6879 11.8885L26.2608 11.2039C26.4103 11.0976 27.0821 9.47719 26.9986 9.38824C27.4743 9.28189 27.5228 9.29542 27.7772 9.22968C27.9694 8.14682 27.8898 7.2612 27.7966 6.37752L26.9617 6.12808C26.752 5.39522 26.5695 4.96014 26.1598 4.30076L26.587 3.63365C26.0453 2.85051 25.3851 2.25301 24.6085 1.70578C24.6085 1.70578 24.3891 1.79667 23.8124 2.06738C23.8124 2.06738 23.2901 1.75799 22.529 1.51628C22.2786 1.437 22.0028 1.36352 21.7116 1.31132L21.7077 1.29585L21.7038 1.28038L21.7 1.26491L21.6961 1.25137L21.6922 1.23784L21.6883 1.2243L21.6844 1.21077L21.6805 1.19723L21.6767 1.18369L21.6728 1.17016L21.6689 1.15856L21.665 1.14695L21.6611 1.13535L21.6572 1.12375L21.6534 1.11215L21.6495 1.10055L21.6456 1.08894L21.6417 1.07734L21.6378 1.06574L21.6339 1.05414L21.6301 1.04254L21.6242 1.02127L21.6203 1.0116L21.6165 1.00193L21.6126 0.992261L21.6087 0.982593L21.6048 0.972924L21.6009 0.963256L21.5971 0.953588L21.5932 0.943919L21.5893 0.934251L21.5854 0.924583L21.5815 0.914914L21.5776 0.905246L21.5738 0.895578L21.5699 0.885909L21.566 0.876241L21.5621 0.866573L21.5582 0.854971L21.5543 0.845302L21.5505 0.8337C21.5505 0.8337 21.5446 0.818231 21.5427 0.81243L21.5388 0.800828L21.5349 0.789226L21.531 0.777624C21.531 0.777624 21.5252 0.762155 21.5233 0.75442L21.5194 0.742818L21.5155 0.731216L21.5116 0.719614L21.5058 0.706078L21.5 0.692543L21.4941 0.679007L21.4883 0.665471L21.4825 0.651936L21.4767 0.6384L21.4708 0.624864L21.465 0.611329L21.4592 0.595859L21.4534 0.58039L21.4475 0.564921L21.4417 0.549452C20.2438 0.423763 19.3933 0.557186 18.6575 0.731216C18.5157 1.17596 18.4653 1.34612 18.3837 1.57623C18.3837 1.57623 18.0517 1.68065 17.6983 1.84307C17.3818 1.9881 17.0498 2.1834 16.8848 2.28202C16.5353 2.13699 16.4479 2.08865 16.1159 1.94943C16.1159 1.94943 14.9044 2.81377 14.1413 4.15187L14.1452 4.148ZM20.7 4.05712C22.8436 4.05712 24.5813 5.78775 24.5813 7.92252C24.5813 10.0573 22.8436 11.7879 20.7 11.7879C18.5565 11.7879 16.8188 10.0573 16.8188 7.92252C16.8188 5.78775 18.5565 4.05712 20.7 4.05712Z" fill="url(#paint1_linear_184_5740)"/>
<path fill-rule="evenodd" clip-rule="evenodd" d="M15.9377 17.8361L16.258 18.5381C15.9163 18.8687 15.3533 19.6383 15.1513 20.0502C14.8562 19.9767 14.7455 19.9322 14.4349 19.8529C13.8213 21.2142 13.7883 21.599 13.6641 22.6026L14.3786 22.8269V22.8946L14.4135 23.9156L14.5222 24.5692L13.9009 25.0854C14.1805 26.1412 14.5766 26.8238 15.1203 27.5721C15.1203 27.5721 15.5435 27.4813 15.9144 27.4058C15.9144 27.4058 16.1668 27.7346 16.6464 28.1503C16.8755 28.3495 17.1686 28.5796 17.4929 28.7749C17.4677 28.8503 17.4482 28.9102 17.4327 28.9566V28.9624L17.4172 29.0011V29.005L17.4133 29.0127L17.4113 29.0224L17.4094 29.0321L17.4075 29.0417L17.4055 29.0514L17.4036 29.0591L17.4016 29.0669L17.3997 29.0746L17.3978 29.0823L17.3958 29.0901L17.3939 29.0978L17.3919 29.1055V29.1133V29.121V29.1287V29.1365V29.1442V29.1519V29.1558L17.39 29.1597V29.1635L17.388 29.1674V29.1713L17.3861 29.1751V29.179L17.3842 29.1829V29.1867L17.3783 29.2022V29.21V29.2177L17.3764 29.2254L17.3745 29.2351L17.3725 29.2448L17.3706 29.2544L17.3686 29.2641L17.3667 29.2738C17.3628 29.2834 17.3609 29.295 17.357 29.3047V29.3144H17.3531L17.3473 29.3356C17.3376 29.3704 17.3279 29.4053 17.3162 29.4478L17.3026 29.4923C18.8559 30.4185 19.7976 30.4069 20.5975 30.4997C20.7761 30.1304 20.813 29.9467 20.8946 29.7881C20.8946 29.7881 21.3936 29.7978 21.9003 29.734C22.3683 29.676 22.8478 29.5425 22.8478 29.5425C23.2128 29.8597 23.1158 29.8133 23.4478 30.113C23.4478 30.113 24.6341 29.7204 25.8107 28.7787L25.5932 28.0033C25.7661 27.9434 26.8689 26.5763 26.8145 26.468C27.3019 26.499 27.3446 26.5241 27.6067 26.5338C28.0979 25.5476 28.2707 24.6774 28.4299 23.8015L27.6999 23.3297C27.7057 22.5678 27.6513 22.0999 27.4455 21.3515L28.0435 20.8314C27.7445 19.9284 27.2805 19.1684 26.6883 18.4278C26.6883 18.4278 26.4534 18.453 25.8224 18.5535C25.8224 18.5535 25.4088 18.1107 24.7448 17.666C24.5273 17.519 24.2827 17.374 24.0186 17.2425V17.227V17.2116V17.1961V17.1806V17.1671V17.1535V17.14V17.1265V17.1129V17.0994V17.0859V17.0723V17.0588V17.0472V17.0356V17.024V17.0124V17.0008V16.9892V16.9776V16.966V16.9447V16.9331V16.9215V16.9099V16.8983V16.8867V16.8751V16.8635V16.8519V16.8403V16.8287V16.8171V16.8055V16.7939V16.7823V16.7707V16.7591V16.7475V16.7359V16.7243C24.0186 16.7165 24.0186 16.7088 24.0186 16.7011V16.6895V16.6779V16.6663C24.0186 16.6663 24.0186 16.6489 24.0186 16.6411V16.6276V16.6141V16.6005V16.587V16.5734V16.5599V16.5464V16.5328V16.5174V16.5019V16.4864V16.471V16.4555H24.0167V16.44H24.0147V16.4226H24.0128C22.8983 15.9663 22.0459 15.8561 21.2887 15.8174C21.0266 16.2041 20.9315 16.3549 20.7878 16.5522C20.7878 16.5522 20.4402 16.5599 20.0539 16.616C19.7102 16.6663 19.3355 16.7629 19.1491 16.8094C18.854 16.5734 18.7841 16.5019 18.5045 16.2737C18.5045 16.2737 17.0968 16.7649 15.9882 17.8361H15.9377ZM22.2556 19.5842C24.3137 20.1836 25.4923 22.3319 24.8904 24.3797C24.2885 26.4293 22.1314 27.6031 20.0752 27.0036C18.0171 26.4042 16.8386 24.2559 17.4405 22.2081C18.0424 20.1585 20.1975 18.9847 22.2556 19.5842Z" fill="url(#paint2_linear_184_5740)"/>
<defs>
<linearGradient id="paint0_linear_184_5740" x1="7.97389" y1="7.84943" x2="7.97389" y2="22.5539" gradientUnits="userSpaceOnUse">
<stop stop-color="#1C51A2"/>
<stop offset="1" stop-color="#0A1E3C"/>
</linearGradient>
<linearGradient id="paint1_linear_184_5740" x1="20.5217" y1="0.5" x2="20.5217" y2="15.2045" gradientUnits="userSpaceOnUse">
<stop stop-color="#1C51A2"/>
<stop offset="1" stop-color="#0A1E3C"/>
</linearGradient>
<linearGradient id="paint2_linear_184_5740" x1="21.047" y1="15.8174" x2="21.047" y2="30.4997" gradientUnits="userSpaceOnUse">
<stop stop-color="#1C51A2"/>
<stop offset="1" stop-color="#0A1E3C"/>
</linearGradient>
</defs>
</svg>
