<?xml version="1.0" encoding="UTF-8"?>
<svg id="_레이어_1" data-name=" 레이어 1" xmlns="http://www.w3.org/2000/svg" viewBox="0 0 58 28.85">
  <defs>
    <style>
      .cls-1 {
        fill: #fff;
      }

      .cls-2 {
        fill: #65d5ff;
      }

      .cls-3 {
        fill: #4339e2;
      }

      .cls-4 {
        fill: #00a0e5;
      }

      .cls-5 {
        fill: #004a9d;
      }
    </style>
  </defs>
  <path class="cls-2" d="M0,28.85h9.87c0-7.81,3.62-13.21,8.64-16.22-1.8-2.79-3.61-5.57-5.41-8.36C5.49,8.82,0,17.01,0,28.85Z"/>
  <path class="cls-4" d="M14.72,3.37c1.62,2.89,3.24,5.78,4.86,8.67,5.77-2.96,13.07-2.96,18.85,0,1.62-2.89,3.24-5.78,4.86-8.67-8.75-4.49-19.82-4.49-28.57,0Z"/>
  <path class="cls-5" d="M58,28.85c0-11.84-5.49-20.03-13.1-24.58-1.8,2.79-3.61,5.57-5.41,8.36,5.02,3,8.64,8.41,8.64,16.22,0,0,9.87,0,9.87,0Z"/>
  <path class="cls-3" d="M28.55,21.87l12.71.5c.11,0,.13.17.02.19l-12.42,2.69c-.06.01-.11-.03-.12-.09l-.3-3.19c0-.06.04-.11.1-.1h.01Z"/>
  <path class="cls-3" d="M26.47,25.58c1.12.87,2.73.67,3.61-.44.88-1.11.69-2.72-.43-3.59-1.12-.87-2.73-.67-3.61.44-.88,1.11-.68,2.72.43,3.59Z"/>
  <path class="cls-1" d="M29.45,24.22c.37-.75.07-1.65-.69-2.02-.75-.37-1.66-.06-2.03.69s-.07,1.65.69,2.02c.75.37,1.66.06,2.03-.69Z"/>
</svg>