<svg width="62" height="30" viewBox="0 0 62 30" fill="none" xmlns="http://www.w3.org/2000/svg">
<mask id="mask0_152_38114" style="mask-type:alpha" maskUnits="userSpaceOnUse" x="0" y="0" width="62" height="30">
<rect width="62" height="30" fill="#D9D9D9"/>
</mask>
<g mask="url(#mask0_152_38114)">
<path d="M3 28.9182H12.8674C12.8674 21.1087 16.4924 15.7033 21.5105 12.702C19.7071 9.91454 17.9037 7.1271 16.1003 4.33966C8.49458 8.88941 3 17.0822 3 28.9182Z" fill="#65D5FF"/>
<path d="M17.7153 3.44294C19.3351 6.3324 20.9548 9.22186 22.5746 12.1113C28.3488 9.14946 35.6484 9.14946 41.4226 12.1113C43.0424 9.22186 44.6621 6.3324 46.2819 3.44294C37.5312 -1.04592 26.466 -1.04592 17.7153 3.44294Z" fill="#D9D9D9"/>
<path d="M61.0002 28.9182C61.0002 17.0822 55.5057 8.8894 47.8999 4.33801C46.0965 7.12545 44.2931 9.91289 42.4897 12.7003C47.5078 15.7017 51.1328 21.1087 51.1328 28.9165H61.0002V28.9182Z" fill="#D9D9D9"/>
<path d="M31.9922 21.9843L19.7761 18.4333C19.6667 18.4023 19.6006 18.5508 19.6988 18.6091L30.6227 25.096C30.6721 25.1258 30.7379 25.1045 30.7609 25.0513L32.0532 22.1153C32.0762 22.062 32.0481 22.0006 31.9922 21.9843Z" fill="#4339E2"/>
<path d="M29.4707 25.6452C30.5858 26.5152 32.2004 26.3193 33.0776 25.2068C33.9548 24.0943 33.7626 22.4878 32.6475 21.6178C31.5324 20.7479 29.9178 20.9438 29.0406 22.0563C28.1634 23.1688 28.3556 24.7753 29.4707 25.6452Z" fill="#4339E2"/>
<path d="M32.4455 24.2928C32.8178 23.5444 32.511 22.6389 31.7602 22.2705C31.0094 21.902 30.0988 22.21 29.7265 22.9584C29.3541 23.7068 29.6609 24.6123 30.4117 24.9807C31.1626 25.3492 32.0731 25.0412 32.4455 24.2928Z" fill="white"/>
</g>
</svg>
